<?xml version="1.0" encoding="utf-8"?>
<!-- Generator: Adobe Illustrator 25.4.1, SVG Export Plug-In . SVG Version: 6.00 Build 0)  -->
<svg version="1.1" id="Livello_1" xmlns="http://www.w3.org/2000/svg" xmlns:xlink="http://www.w3.org/1999/xlink" x="0px" y="0px"
	 viewBox="0 0 1040 80" style="enable-background:new 0 0 1040 80;" xml:space="preserve">
<style type="text/css">
	.st0{fill:#666666;}
</style>
<path class="st0" d="M352.7958,62V40.0335v-2.1909v-2.1947c-0.429,0.5822-0.858,1.1606-1.2831,1.7428
	c-0.429,0.5822-0.8427,1.1682-1.2755,1.7504l-10.2689,13.8962h-2.5471L327.1637,39.141c-0.2184-0.2911-0.429-0.5822-0.6435-0.8733
	c-0.2222-0.3026-0.429-0.586-0.6397-0.8771c-0.2221-0.2911-0.429-0.5745-0.6358-0.8695c-0.2222-0.2911-0.4366-0.5822-0.6435-0.8733
	v2.1947v2.1909V62h-4.4737V29.5424h5.0099l11.3912,15.5126c0.3754,0.5247,0.7507,1.038,1.1299,1.5436
	c0.3831,0.5094,0.7661,1.0227,1.1567,1.5513c0.3716-0.5286,0.7622-1.0418,1.1299-1.5742l1.1452-1.5704l11.3913-15.4628h4.7916V62
	H352.7958z"/>
<path class="st0" d="M389.9496,60.4323c-0.6473,0.2988-1.3445,0.5745-2.0684,0.8312c-0.7507,0.2681-1.5359,0.4826-2.4016,0.6665
	c-0.8541,0.1915-1.7734,0.3371-2.7654,0.4443c-0.9844,0.1073-2.0645,0.1532-3.2097,0.1532c-1.5091,0-2.8957-0.1302-4.1406-0.4136
	c-1.2601-0.2681-2.3747-0.6741-3.3745-1.1912c-1.0035-0.5209-1.873-1.1452-2.6237-1.8883
	c-0.7392-0.7278-1.3597-1.5589-1.8538-2.4744c-0.5056-0.9078-0.8733-1.9113-1.1261-2.9799
	c-0.2451-1.0763-0.3639-2.2216-0.3639-3.4166c0-1.0916,0.1188-2.1373,0.3792-3.1485c0.2528-1.0074,0.6358-1.9381,1.1338-2.8038
	c0.4941-0.8618,1.0993-1.6547,1.8308-2.3594c0.7354-0.7086,1.5666-1.3138,2.5241-1.8117c0.9461-0.4941,1.9994-0.8848,3.16-1.1529
	c1.1643-0.2758,2.4245-0.4213,3.7843-0.4213c1.3368,0,2.5739,0.1379,3.7269,0.383c1.1376,0.2528,2.1871,0.6205,3.1255,1.0763
	c0.9384,0.475,1.7734,1.0495,2.4973,1.7122c0.7354,0.6664,1.3445,1.421,1.8271,2.2484c0.498,0.8235,0.8618,1.7313,1.1299,2.7042
	c0.2452,0.9767,0.3754,2.0071,0.3754,3.0872c0,0.1456,0,0.2949-0.0077,0.4481c0,0.1762-0.0077,0.3217-0.023,0.4903
	c-0.0077,0.1456-0.0154,0.2988-0.023,0.4328c-0.0077,0.1494-0.023,0.2681-0.0306,0.36h-20.9821
	c0.0766,1.1529,0.3294,2.1871,0.7584,3.1178c0.429,0.9269,1.0303,1.7121,1.8117,2.3709c0.7929,0.655,1.7658,1.1605,2.9187,1.5091
	c1.1606,0.3601,2.5049,0.5362,4.0639,0.5362c1.0992,0,2.1181-0.0536,3.0412-0.1647c0.9154-0.1187,1.7811-0.2681,2.5816-0.452
	c0.7929-0.1992,1.5513-0.4136,2.2637-0.6665c0.7086-0.2528,1.3866-0.5056,2.0607-0.7737V60.4323z M387.1765,48.0108
	c-0.1073-0.9039-0.3831-1.7351-0.8389-2.482c-0.4596-0.7661-1.0495-1.4172-1.7887-1.942c-0.7239-0.5439-1.5896-0.9614-2.5548-1.2601
	c-0.9767-0.2988-2.0224-0.4596-3.1599-0.4596c-1.1338,0-2.1871,0.1609-3.1638,0.4596c-0.9767,0.2987-1.8347,0.7162-2.5663,1.2601
	c-0.7354,0.5247-1.3368,1.1759-1.7887,1.942c-0.4596,0.7469-0.7354,1.5781-0.8158,2.482H387.1765z"/>
<path class="st0" d="M440.6879,62V48.054c0-1.1491-0.1609-2.1066-0.4673-2.8803c-0.3026-0.7775-0.7545-1.4095-1.3674-1.8768
	c-0.6013-0.4826-1.3636-0.8197-2.2752-1.0227c-0.9039-0.2068-1.9649-0.3141-3.1561-0.3141c-0.9001,0-1.7811,0.0766-2.6429,0.2145
	c-0.8656,0.1456-1.6892,0.3294-2.4667,0.563c-0.7967,0.2451-1.5129,0.5209-2.1871,0.8312
	c-0.6665,0.3179-1.2449,0.6511-1.7504,0.9959c0.0842,0.406,0.1532,0.835,0.2222,1.2984c0.0536,0.452,0.0766,0.9308,0.0766,1.4363V62
	h-4.4316V48.054c0-1.1491-0.1494-2.1066-0.452-2.8803c-0.3026-0.7775-0.7699-1.4095-1.3789-1.8768
	c-0.6052-0.4826-1.3674-0.8197-2.2637-1.0227c-0.9116-0.2068-1.9611-0.3141-3.1638-0.3141c-0.8618,0-1.7122,0.0689-2.5356,0.1915
	c-0.8235,0.1379-1.6202,0.3103-2.3748,0.5362c-0.7507,0.2184-1.4593,0.4635-2.1181,0.7622
	c-0.655,0.2873-1.2372,0.5975-1.7504,0.9307V62h-4.4392V39.0031h3.723l0.3562,2.2905c0.5745-0.4213,1.218-0.7929,1.9649-1.1452
	c0.7315-0.3447,1.5436-0.6435,2.4054-0.8925c0.8656-0.2451,1.7734-0.4366,2.731-0.5745c0.9614-0.1379,1.9535-0.2145,2.9799-0.2145
	c0.9538,0,1.8768,0.0689,2.7808,0.1839c0.9001,0.1302,1.7466,0.3294,2.5433,0.609c0.8005,0.2949,1.5282,0.6511,2.1871,1.1031
	c0.6626,0.452,1.241,0.992,1.7236,1.6432c0.5439-0.4826,1.2219-0.9308,2.0338-1.3598c0.7929-0.4366,1.6892-0.8044,2.6582-1.1337
	c0.9767-0.3179,2.0262-0.5784,3.1255-0.7622c1.0993-0.1838,2.2292-0.2834,3.386-0.2834c0.9614,0,1.8921,0.0689,2.8037,0.1762
	c0.9078,0.1302,1.7657,0.3217,2.5586,0.6052c0.8005,0.2796,1.5206,0.632,2.1832,1.0763c0.6665,0.4481,1.241,0.9997,1.7122,1.6585
	c0.475,0.655,0.8388,1.421,1.0993,2.2981c0.2604,0.881,0.3907,1.8807,0.3907,3.0182V62H440.6879z"/>
<path class="st0" d="M455.252,61.9981V29.5443h4.4393v11.261c0.5439-0.3524,1.1529-0.6741,1.827-0.9537
	c0.6703-0.2911,1.3828-0.5362,2.1488-0.7354c0.7469-0.2068,1.5321-0.3638,2.3518-0.4826c0.8311-0.1034,1.6508-0.1647,2.4897-0.1647
	c2.0339,0,3.8686,0.2681,5.5079,0.7929c1.6432,0.5439,3.0336,1.3138,4.1942,2.3365c1.1567,1.0265,2.0492,2.279,2.6774,3.769
	c0.6167,1.4976,0.9384,3.1944,0.9384,5.1019c0,1.873-0.3064,3.5621-0.9154,5.0445c-0.6129,1.4976-1.5015,2.7578-2.6621,3.7881
	c-1.1682,1.0457-2.5892,1.85-4.2707,2.4016c-1.6853,0.5477-3.5889,0.8235-5.7301,0.8235c-0.8771,0-1.7351-0.0536-2.5816-0.1532
	c-0.8503-0.1072-1.6585-0.2605-2.4207-0.4635c-0.7813-0.2068-1.49-0.4596-2.1641-0.7584c-0.6741-0.2988-1.2678-0.6435-1.7926-1.038
	l-0.3217,1.8845H455.252z M459.6914,56.8885c0.5439,0.3524,1.1223,0.6627,1.7427,0.9384c0.6014,0.2758,1.2449,0.5133,1.9037,0.7048
	c0.6549,0.1915,1.3521,0.3447,2.0683,0.4405c0.7124,0.0996,1.444,0.1532,2.2178,0.1532c1.5589,0,2.9301-0.18,4.1328-0.5477
	c1.1912-0.3677,2.2062-0.9154,3.0221-1.6432c0.812-0.7277,1.4287-1.6278,1.8423-2.7118c0.4213-1.0725,0.6358-2.3249,0.6358-3.7536
	c0-1.4095-0.2145-2.6582-0.6358-3.7268c-0.4137-1.061-1.0304-1.9496-1.8423-2.6582c-0.8159-0.7124-1.8309-1.241-3.0221-1.5972
	c-1.2027-0.3524-2.5739-0.5286-4.1328-0.5286c-0.7738,0-1.5053,0.0536-2.2178,0.1532c-0.7162,0.1072-1.4134,0.2528-2.0683,0.4443
	c-0.6588,0.1915-1.3023,0.4366-1.9037,0.7086c-0.6205,0.2758-1.1988,0.5899-1.7427,0.9423V56.8885z"/>
<path class="st0" d="M512.1644,60.4323c-0.6473,0.2988-1.3445,0.5745-2.0684,0.8312c-0.7507,0.2681-1.5359,0.4826-2.4016,0.6665
	c-0.858,0.1915-1.7734,0.3371-2.7654,0.4443c-0.9844,0.1073-2.0645,0.1532-3.2097,0.1532c-1.513,0-2.8957-0.1302-4.1405-0.4136
	c-1.2601-0.2681-2.3748-0.6741-3.3745-1.1912c-1.0035-0.5209-1.873-1.1452-2.6237-1.8883
	c-0.7392-0.7278-1.3674-1.5589-1.8538-2.4744c-0.5056-0.9078-0.8734-1.9113-1.1261-2.9799
	c-0.2451-1.0763-0.3639-2.2216-0.3639-3.4166c0-1.0916,0.1187-2.1373,0.3792-3.1485c0.2528-1.0074,0.6358-1.9381,1.1338-2.8038
	c0.4941-0.8618,1.0993-1.6547,1.8308-2.3594c0.7354-0.7086,1.5666-1.3138,2.5203-1.8117c0.9499-0.4941,2.0032-0.8848,3.1638-1.1529
	c1.1643-0.2758,2.4245-0.4213,3.7842-0.4213c1.3368,0,2.5739,0.1379,3.7269,0.383c1.1376,0.2528,2.1871,0.6205,3.1255,1.0763
	c0.9384,0.475,1.7734,1.0495,2.4973,1.7122c0.7278,0.6664,1.3445,1.421,1.8271,2.2484c0.4979,0.8235,0.8618,1.7313,1.1299,2.7042
	c0.2452,0.9767,0.3754,2.0071,0.3754,3.0872c0,0.1456,0,0.2949-0.0077,0.4481c0,0.1762-0.0076,0.3217-0.0229,0.4903
	c-0.0077,0.1456-0.0154,0.2988-0.023,0.4328c-0.0077,0.1494-0.023,0.2681-0.0306,0.36h-20.9821
	c0.0766,1.1529,0.3294,2.1871,0.7584,3.1178c0.429,0.9269,1.0303,1.7121,1.8117,2.3709c0.7928,0.655,1.7658,1.1605,2.9187,1.5091
	c1.1606,0.3601,2.505,0.5362,4.0639,0.5362c1.0992,0,2.1143-0.0536,3.0412-0.1647c0.9154-0.1187,1.781-0.2681,2.5816-0.452
	c0.7929-0.1992,1.5513-0.4136,2.2637-0.6665c0.7086-0.2528,1.3865-0.5056,2.0607-0.7737V60.4323z M509.3913,48.0108
	c-0.1073-0.9039-0.3831-1.7351-0.8427-2.482c-0.4558-0.7661-1.0457-1.4172-1.7888-1.942c-0.7239-0.5439-1.5857-0.9614-2.5509-1.2601
	c-0.9843-0.2988-2.0224-0.4596-3.16-0.4596c-1.1338,0-2.1871,0.1609-3.1638,0.4596c-0.9767,0.2987-1.8347,0.7162-2.5663,1.2601
	c-0.7354,0.5247-1.3367,1.1759-1.7887,1.942c-0.4596,0.7469-0.7354,1.5781-0.8158,2.482H509.3913z"/>
<path class="st0" d="M521.9779,62V39.0031h3.9911l0.3486,4.1712c0.3984-0.586,0.8618-1.1606,1.3903-1.7198
	c0.5363-0.563,1.153-1.0533,1.8654-1.4823c0.7086-0.4175,1.5053-0.7622,2.4054-1.0303c0.8963-0.2605,1.896-0.383,3.0029-0.383
	c0.8312,0,1.5972,0.046,2.2867,0.1532c0.7009,0.1072,1.2985,0.2375,1.7925,0.429v3.9337c-0.3333-0.0843-0.6703-0.1609-1.0303-0.2298
	c-0.3677-0.0689-0.7393-0.1149-1.1299-0.1647c-0.3984-0.0498-0.7968-0.0842-1.2065-0.1111
	c-0.4137-0.0153-0.8273-0.0306-1.2563-0.0306c-0.8005,0-1.5283,0.0766-2.1909,0.2145c-0.6589,0.1532-1.2602,0.3447-1.7964,0.5822
	c-0.54,0.2336-1.0226,0.5132-1.4517,0.8235c-0.4252,0.3141-0.8082,0.6358-1.1299,0.9729c-0.3218,0.3371-0.6129,0.6626-0.8503,0.992
	c-0.2336,0.3179-0.4329,0.6282-0.5937,0.9001V62H521.9779z"/>
<path class="st0" d="M572.5794,62.5255c-1.6125,0-3.0718-0.1264-4.3856-0.4098c-1.3138-0.2758-2.4744-0.6665-3.5085-1.1797
	c-1.0226-0.5018-1.9075-1.1146-2.6544-1.8385c-0.7507-0.7239-1.3788-1.5283-1.8577-2.4207
	c-0.4825-0.8963-0.8464-1.8653-1.0839-2.9033c-0.2375-1.0495-0.3524-2.1488-0.3524-3.3017c0-1.1223,0.1149-2.2177,0.3639-3.2481
	c0.2375-1.0303,0.6052-1.9955,1.1031-2.8957c0.4941-0.8848,1.1223-1.6892,1.8691-2.4054c0.7661-0.7354,1.6508-1.3444,2.685-1.85
	c1.015-0.5209,2.1833-0.9078,3.4894-1.1912c1.2985-0.2758,2.7348-0.4137,4.332-0.4137c1.6125,0,3.0718,0.1379,4.3856,0.4137
	c1.3138,0.2834,2.4821,0.6703,3.5085,1.1835c1.0303,0.5056,1.9113,1.1146,2.6658,1.8423c0.7469,0.7239,1.3751,1.5283,1.8577,2.4207
	c0.4788,0.9001,0.8389,1.873,1.084,2.9033c0.226,1.0456,0.3524,2.1411,0.3524,3.2863c0,1.1376-0.1263,2.2216-0.3524,3.2634
	c-0.2527,1.0303-0.6129,1.9917-1.1185,2.888c-0.4941,0.8925-1.1146,1.6892-1.8768,2.4207
	c-0.7507,0.7163-1.6432,1.3368-2.6658,1.8385c-1.0266,0.5209-2.1948,0.9116-3.5009,1.1874
	C575.6206,62.3992,574.1689,62.5255,572.5794,62.5255 M572.5794,59.0898c1.5895,0,2.9722-0.2068,4.1329-0.6128
	c1.1682-0.4022,2.1334-0.9767,2.8956-1.7236c0.7737-0.7354,1.3329-1.647,1.6968-2.6965c0.3677-1.0495,0.5592-2.233,0.5592-3.5392
	c0-1.2984-0.1915-2.4743-0.5592-3.5391c-0.3639-1.0533-0.9232-1.9611-1.6968-2.7042c-0.7622-0.7546-1.7275-1.3368-2.8956-1.7428
	c-1.1606-0.4098-2.5433-0.609-4.1329-0.609c-1.5972,0-2.9646,0.1992-4.1252,0.6013c-1.1606,0.406-2.1296,0.9806-2.8957,1.7275
	c-0.7622,0.7431-1.3291,1.6355-1.7045,2.6888c-0.36,1.061-0.5477,2.233-0.5477,3.5315c0,1.3061,0.1877,2.482,0.5477,3.543
	c0.3754,1.0648,0.9423,1.9649,1.7045,2.7157c0.7661,0.7546,1.7351,1.3253,2.8957,1.7466
	C569.6148,58.883,570.9822,59.0898,572.5794,59.0898"/>
<path class="st0" d="M597.6799,62V42.4925h-6.5881v-3.4894h6.5881v-1.5283c0-1.3138,0.1915-2.4896,0.5937-3.5315
	c0.3983-1.0457,1.0111-1.9419,1.8423-2.6659c0.8503-0.7316,1.9113-1.2908,3.1945-1.6853c1.2908-0.3907,2.8344-0.5822,4.6385-0.5822
	c0.7009,0,1.3597,0.023,1.9687,0.0613c0.6052,0.0536,1.1644,0.1226,1.6738,0.2068c0.5286,0.0843,1.0035,0.18,1.4363,0.2949
	c0.429,0.1149,0.8273,0.2375,1.1836,0.3754v3.5009c-0.4022-0.1379-0.8388-0.2528-1.3177-0.3524
	c-0.4825-0.1149-0.9958-0.1992-1.5206-0.2681c-0.5286-0.0766-1.0801-0.1302-1.6432-0.1762
	c-0.5669-0.0383-1.1299-0.0613-1.7045-0.0613c-1.0878,0-2.0109,0.1072-2.7731,0.3217c-0.7507,0.2145-1.3674,0.5362-1.827,0.9537
	c-0.475,0.429-0.8006,0.9652-1.0074,1.6202c-0.2068,0.6511-0.3064,1.421-0.3064,2.3097v1.2065h9.6867v3.4894h-9.6867V62H597.6799z"
	/>
<path class="st0" d="M649.2666,61.4186c-0.4291,0.1532-0.8734,0.2988-1.3598,0.4328c-0.4902,0.1379-1.0264,0.2605-1.5895,0.36
	c-0.5592,0.0996-1.1606,0.1762-1.7964,0.2375c-0.6396,0.0536-1.3137,0.0842-2.0262,0.0842c-1.3789,0-2.6122-0.1379-3.6349-0.3983
	c-1.0457-0.2643-1.9113-0.6856-2.6122-1.2678c-0.6971-0.5784-1.2142-1.3291-1.559-2.2369
	c-0.3524-0.9193-0.5363-2.0185-0.5363-3.3093V42.4933h-4.9716v-3.4932h5.1555l0.5362-5.7377h3.6809v5.7377h11.0733v3.4932h-11.0733
	V54.731c0,0.7967,0.0995,1.4593,0.3141,2.0032c0.2068,0.5401,0.5171,0.9767,0.9537,1.3061c0.429,0.3217,0.9805,0.5592,1.6432,0.6971
	c0.6664,0.1341,1.4593,0.2068,2.3824,0.2068c0.5056,0,1.0112-0.0153,1.5091-0.0728c0.4865-0.0498,0.9614-0.1188,1.4211-0.1954
	c0.4481-0.0919,0.8848-0.1992,1.3022-0.3141c0.4137-0.1226,0.8121-0.2605,1.1874-0.3983V61.4186z"/>
<path class="st0" d="M677.545,62V48.054c0-1.1491-0.1533-2.1066-0.4673-2.8803c-0.2988-0.7775-0.7545-1.4095-1.3597-1.8768
	c-0.6089-0.4826-1.3751-0.8197-2.2752-1.0227c-0.8962-0.2068-1.9649-0.3141-3.1561-0.3141c-0.8657,0-1.7122,0.0689-2.5356,0.1915
	c-0.835,0.1379-1.6202,0.3103-2.3786,0.5362c-0.7545,0.2184-1.4593,0.4635-2.1143,0.7622
	c-0.6588,0.2873-1.2372,0.5975-1.7581,0.9307V62h-4.4393V29.5424h4.4393v11.644c0.5707-0.3792,1.2218-0.7469,1.9304-1.0763
	c0.7201-0.3371,1.5015-0.6167,2.325-0.8618c0.8235-0.2451,1.7044-0.429,2.6199-0.5669c0.9269-0.1379,1.873-0.2145,2.8497-0.2145
	c0.9575,0,1.8959,0.0689,2.796,0.1762c0.9116,0.1302,1.7657,0.3217,2.5625,0.6052c0.8005,0.2796,1.5244,0.632,2.1909,1.0763
	c0.6664,0.4481,1.2295,0.9997,1.7121,1.6585c0.4673,0.655,0.8311,1.421,1.0916,2.2981c0.2681,0.881,0.3984,1.8807,0.3984,3.0182V62
	H677.545z"/>
<path class="st0" d="M713.9302,60.4323c-0.6473,0.2988-1.3368,0.5745-2.0684,0.8312c-0.743,0.2681-1.5359,0.4826-2.4016,0.6665
	c-0.8541,0.1915-1.7734,0.3371-2.7654,0.4443c-0.9844,0.1073-2.0645,0.1532-3.2059,0.1532c-1.5129,0-2.8995-0.1302-4.1443-0.4136
	c-1.2525-0.2681-2.3671-0.6741-3.3668-1.1912c-1.0035-0.5209-1.8806-1.1452-2.6198-1.8883
	c-0.7507-0.7278-1.3713-1.5589-1.8654-2.4744c-0.498-0.9078-0.8734-1.9113-1.1185-2.9799
	c-0.2413-1.0763-0.3639-2.2216-0.3639-3.4166c0-1.0916,0.1226-2.1373,0.3831-3.1485c0.249-1.0074,0.6243-1.9381,1.1223-2.8038
	c0.4941-0.8618,1.107-1.6547,1.8424-2.3594c0.7315-0.7086,1.5627-1.3138,2.5126-1.8117c0.9461-0.4941,2.0071-0.8848,3.1677-1.1529
	c1.1644-0.2758,2.4169-0.4213,3.7843-0.4213c1.3291,0,2.5739,0.1379,3.7192,0.383c1.1376,0.2528,2.1948,0.6205,3.1331,1.0763
	c0.9308,0.475,1.7657,1.0495,2.4974,1.7122c0.7277,0.6664,1.3367,1.421,1.8193,2.2484c0.498,0.8235,0.8618,1.7313,1.1299,2.7042
	c0.2528,0.9767,0.3754,2.0071,0.3754,3.0872v0.4481c-0.0076,0.1762-0.0153,0.3217-0.0229,0.4903
	c-0.0154,0.1456-0.023,0.2988-0.0307,0.4328c-0.0076,0.1494-0.0229,0.2681-0.0229,0.36h-20.9783
	c0.0766,1.1529,0.3179,2.1871,0.7469,3.1178c0.429,0.9269,1.0342,1.7121,1.8194,2.3709c0.7852,0.655,1.7581,1.1605,2.9186,1.5091
	c1.1529,0.3601,2.4973,0.5362,4.0563,0.5362c1.0992,0,2.1257-0.0536,3.0412-0.1647c0.9231-0.1187,1.7811-0.2681,2.5815-0.452
	c0.8044-0.1992,1.559-0.4136,2.2637-0.6665c0.7086-0.2528,1.3865-0.5056,2.0607-0.7737V60.4323z M711.157,48.0108
	c-0.1073-0.9039-0.3831-1.7351-0.8389-2.482c-0.452-0.7661-1.0495-1.4172-1.7811-1.942c-0.7277-0.5439-1.5896-0.9614-2.5624-1.2601
	c-0.9767-0.2988-2.0224-0.4596-3.1523-0.4596c-1.1299,0-2.1871,0.1609-3.1638,0.4596c-0.9767,0.2987-1.8347,0.7162-2.5739,1.2601
	c-0.7354,0.5247-1.3291,1.1759-1.7888,1.942c-0.4596,0.7469-0.7277,1.5781-0.8158,2.482H711.157z"/>
<path class="st0" d="M766.5962,62l-4.0179-7.9976l-0.0153-0.0307h-19.5381l-0.0078,0.0307L739.0298,62h-5.0636l16.2249-32.4538
	h5.3395L771.7518,62H766.5962z M754.7224,37.697c-0.3141-0.6281-0.6358-1.2831-0.9614-1.9572
	c-0.3293-0.6703-0.6511-1.3253-0.9614-1.9764c-0.3218,0.6511-0.6512,1.3061-0.9729,1.9611
	c-0.3294,0.6588-0.6473,1.3253-0.9537,1.9726l-6.182,12.4905l-0.0076,0.0268h16.2211l-0.0077-0.0268L754.7224,37.697z"/>
<path class="st0" d="M797.7006,62l-0.3524-1.9726c-0.5669,0.3754-1.1989,0.7124-1.9037,1.015
	c-0.7009,0.3103-1.4517,0.5745-2.2445,0.7967c-0.8043,0.2145-1.6431,0.383-2.5203,0.5133
	c-0.8886,0.1226-1.7964,0.1762-2.7349,0.1762c-0.9652,0-1.9113-0.0498-2.8229-0.1455c-0.9231-0.0996-1.7848-0.2681-2.5968-0.5209
	c-0.8159-0.2451-1.5666-0.5784-2.2446-0.9921c-0.6895-0.4137-1.2755-0.9422-1.7657-1.5742
	c-0.4904-0.6435-0.8771-1.3981-1.1529-2.279c-0.2681-0.8848-0.4137-1.9075-0.4137-3.0834V39.0031h4.4393v14.1643
	c0,1.0878,0.1684,1.9956,0.4978,2.7501c0.3294,0.7469,0.8082,1.3521,1.4518,1.8117c0.6319,0.4673,1.4209,0.8005,2.3441,1.0074
	c0.9307,0.2068,1.9955,0.2988,3.2021,0.2988c0.8694,0,1.6661-0.046,2.3901-0.1302c0.7277-0.0996,1.4057-0.2451,2.0568-0.4252
	c0.632-0.1838,1.2525-0.4213,1.8462-0.6894c0.5975-0.2758,1.1951-0.5899,1.8118-0.9499V39.0031h4.4316V62H797.7006z"/>
<path class="st0" d="M832.7938,62.0012l-0.3523-2.0185c-0.5439,0.3677-1.1683,0.7086-1.8654,1.0227
	c-0.7048,0.3064-1.444,0.5745-2.233,0.812c-0.7853,0.2183-1.6088,0.3945-2.4744,0.5286c-0.8696,0.1188-1.7429,0.18-2.62,0.18
	c-2.0338,0-3.8646-0.2643-5.5001-0.7929c-1.6356-0.5439-3.0259-1.3214-4.1942-2.3518c-1.1567-1.0342-2.0416-2.2943-2.6697-3.7843
	c-0.6243-1.4976-0.9384-3.2097-0.9384-5.1287c0-1.8615,0.2988-3.543,0.9155-5.0253c0.6129-1.4747,1.4938-2.7348,2.6544-3.7728
	c1.1682-1.038,2.5816-1.8271,4.2707-2.3786c1.6815-0.5477,3.5966-0.8235,5.7378-0.8235c0.8082,0,1.6163,0.0536,2.4054,0.1455
	c0.7967,0.0919,1.5512,0.2375,2.2867,0.4137c0.7315,0.1762,1.4286,0.3945,2.076,0.6626c0.6511,0.2681,1.2448,0.5745,1.7888,0.9231
	V29.5436h4.424v32.4576H832.7938z M832.0814,44.1598c-0.544-0.3524-1.1224-0.6626-1.7504-0.9384
	c-0.6129-0.2758-1.2449-0.5133-1.9114-0.7124c-0.655-0.1838-1.3521-0.3371-2.0682-0.4328
	c-0.7125-0.0996-1.4441-0.1532-2.2102-0.1532c-1.5512,0-2.9339,0.1647-4.1251,0.5247c-1.1989,0.3601-2.2062,0.9039-3.0259,1.6126
	c-0.8236,0.7201-1.4402,1.6049-1.8616,2.6812c-0.4059,1.0725-0.6282,2.3173-0.6282,3.7268c0,1.4325,0.2222,2.6773,0.6282,3.746
	c0.4214,1.084,1.038,1.9803,1.8616,2.7042c0.8196,0.7278,1.827,1.2602,3.0259,1.6279c1.1912,0.3677,2.5739,0.5401,4.1251,0.5401
	c0.7661,0,1.4977-0.0498,2.2102-0.1494c0.7162-0.1072,1.4133-0.2605,2.0682-0.4443c0.6665-0.1992,1.2985-0.4366,1.9114-0.7086
	c0.6281-0.2758,1.2064-0.5899,1.7504-0.9422V44.1598z"/>
<path class="st0" d="M847.1373,29.5462h4.4393v4.8529h-4.4393V29.5462z M847.1373,39.0031h4.4393V62h-4.4393V39.0031z"/>
<path class="st0" d="M903.8424,46.3461h4.5695v14.1337c-0.6014,0.2145-1.2449,0.4137-1.919,0.6052
	c-0.6702,0.1838-1.3904,0.3562-2.1296,0.5018c-0.743,0.1609-1.5206,0.2911-2.3326,0.4137c-0.8082,0.1072-1.647,0.2145-2.5203,0.2911
	c-0.8694,0.0843-1.7811,0.1379-2.7195,0.1724c-0.9461,0.0498-1.9114,0.0651-2.911,0.0651c-2.8497,0-5.4083-0.3677-7.6758-1.0955
	c-2.2714-0.7316-4.2056-1.8155-5.7952-3.2289c-1.5972-1.4287-2.8229-3.1791-3.6733-5.2666
	c-0.8464-2.076-1.2678-4.4699-1.2678-7.1664c0-1.7389,0.1915-3.3591,0.5707-4.8644c0.3906-1.5053,0.9498-2.8804,1.6891-4.1213
	c0.7393-1.2449,1.6432-2.3441,2.7233-3.3132c1.0649-0.9729,2.2982-1.7811,3.6886-2.4475c1.3827-0.6626,2.9033-1.1605,4.5848-1.5053
	c1.6547-0.3409,3.4588-0.5171,5.3854-0.5171c0.6396,0,1.3062,0.0153,1.9994,0.046c0.6971,0.023,1.4019,0.0766,2.1029,0.1379
	c0.6932,0.0613,1.3903,0.1379,2.0874,0.2375c0.701,0.0881,1.3674,0.203,2.0147,0.3333c0.6435,0.1379,1.2525,0.2834,1.827,0.452
	c0.5784,0.1609,1.1069,0.3447,1.582,0.5439v3.995c-0.812-0.3294-1.6892-0.6052-2.6276-0.835
	c-0.9308-0.2183-1.8807-0.4022-2.8498-0.5477c-0.9537-0.1455-1.9113-0.2451-2.8535-0.3141
	c-0.9307-0.0613-1.8079-0.0996-2.6199-0.0996c-2.3518,0-4.4354,0.2681-6.2472,0.7929c-1.8117,0.5362-3.3399,1.3253-4.5771,2.3939
	c-1.2449,1.0686-2.1871,2.3977-2.8267,4.0026c-0.6359,1.5972-0.9576,3.4779-0.9576,5.6305c0,1.5513,0.1608,2.9493,0.4825,4.1865
	c0.3141,1.241,0.7738,2.3326,1.3597,3.2864c0.5975,0.9537,1.31,1.7734,2.1641,2.459c0.8465,0.6741,1.8002,1.241,2.8727,1.6662
	c1.061,0.4366,2.2215,0.7584,3.4894,0.9537c1.2601,0.2183,2.6084,0.3141,4.0294,0.3141c1.1299,0,2.1755-0.046,3.1446-0.1302
	c0.9728-0.0842,1.8424-0.1838,2.6276-0.3026c0.7967-0.1302,1.4785-0.2604,2.0645-0.406c0.5898-0.1456,1.061-0.2681,1.444-0.3754
	V46.3461z"/>
<path class="st0" d="M917.7347,62V39.0031h3.9911l0.3486,4.1712c0.3984-0.586,0.8617-1.1606,1.3903-1.7198
	c0.5363-0.563,1.1453-1.0533,1.8577-1.4823c0.7125-0.4175,1.5129-0.7622,2.4054-1.0303c0.8963-0.2605,1.8959-0.383,3.0029-0.383
	c0.835,0,1.5896,0.046,2.2943,0.1532c0.701,0.1072,1.2908,0.2375,1.7849,0.429v3.9337c-0.3256-0.0843-0.678-0.1609-1.0303-0.2298
	c-0.3602-0.0689-0.7393-0.1149-1.1223-0.1647c-0.3984-0.0498-0.7968-0.0842-1.2065-0.1111
	c-0.4137-0.0153-0.8351-0.0306-1.2563-0.0306c-0.8082,0-1.5321,0.0766-2.1909,0.2145c-0.6665,0.1532-1.2602,0.3447-1.8118,0.5822
	c-0.5324,0.2336-1.0073,0.5132-1.4402,0.8235c-0.429,0.3141-0.8043,0.6358-1.126,0.9729c-0.3218,0.3371-0.6129,0.6626-0.8465,0.992
	c-0.2375,0.3179-0.4367,0.6282-0.6052,0.9001V62H917.7347z"/>
<path class="st0" d="M953.1849,62.5255c-1.6126,0-3.0718-0.1264-4.3896-0.4098c-1.3099-0.2758-2.4781-0.6665-3.5046-1.1797
	c-1.0304-0.5018-1.9114-1.1146-2.6659-1.8385c-0.7393-0.7239-1.3674-1.5283-1.8577-2.4207
	c-0.4788-0.8963-0.8465-1.8653-1.084-2.9033c-0.2299-1.0495-0.3447-2.1488-0.3447-3.3017c0-1.1223,0.1149-2.2177,0.36-3.2481
	c0.2452-1.0303,0.6053-1.9955,1.0994-2.8957c0.498-0.8848,1.1262-1.6892,1.8807-2.4054c0.766-0.7354,1.6508-1.3444,2.6811-1.85
	c1.0074-0.5209,2.1794-0.9078,3.4855-1.1912c1.2985-0.2758,2.7425-0.4137,4.3398-0.4137c1.6086,0,3.0718,0.1379,4.3856,0.4137
	c1.3137,0.2834,2.4743,0.6703,3.5047,1.1835c1.0264,0.5056,1.9113,1.1146,2.6582,1.8423c0.7507,0.7239,1.375,1.5283,1.8654,2.4207
	c0.4749,0.9001,0.8388,1.873,1.0762,2.9033c0.2375,1.0456,0.3525,2.1411,0.3525,3.2863c0,1.1376-0.1149,2.2216-0.3525,3.2634
	c-0.2451,1.0303-0.6089,1.9917-1.1069,2.888c-0.4941,0.8925-1.1146,1.6892-1.8768,2.4207c-0.7584,0.7163-1.647,1.3368-2.6774,1.8385
	c-1.015,0.5209-2.1832,0.9116-3.4893,1.1874C956.2185,62.3992,954.7744,62.5255,953.1849,62.5255 M953.1849,59.0898
	c1.5895,0,2.9608-0.2068,4.1328-0.6128c1.1606-0.4022,2.1296-0.9767,2.8957-1.7236c0.7623-0.7354,1.329-1.647,1.6968-2.6965
	c0.36-1.0495,0.5477-2.233,0.5477-3.5392c0-1.2984-0.1877-2.4743-0.5477-3.5391c-0.3677-1.0533-0.9345-1.9611-1.6968-2.7042
	c-0.7661-0.7546-1.7351-1.3368-2.8957-1.7428c-1.1721-0.4098-2.5433-0.609-4.1328-0.609c-1.5973,0-2.9723,0.1992-4.1367,0.6013
	c-1.1606,0.406-2.1219,0.9806-2.8842,1.7275c-0.7661,0.7431-1.3406,1.6355-1.7122,2.6888c-0.36,1.061-0.5515,2.233-0.5515,3.5315
	c0,1.3061,0.1915,2.482,0.5515,3.543c0.3716,1.0648,0.9461,1.9649,1.7122,2.7157c0.7622,0.7546,1.7236,1.3253,2.8842,1.7466
	C950.2126,58.883,951.5876,59.0898,953.1849,59.0898"/>
<path class="st0" d="M995.7947,62l-0.3524-1.9726c-0.5669,0.3754-1.1989,0.7124-1.8998,1.015
	c-0.7048,0.3103-1.4441,0.5745-2.2484,0.7967c-0.8005,0.2145-1.6355,0.383-2.5203,0.5133
	c-0.8848,0.1226-1.7888,0.1762-2.7349,0.1762c-0.9651,0-1.9036-0.0498-2.8229-0.1455c-0.9231-0.0996-1.7849-0.2681-2.5931-0.5209
	c-0.8196-0.2451-1.5703-0.5784-2.2482-0.9921c-0.6818-0.4137-1.2679-0.9422-1.7657-1.5742
	c-0.4865-0.6435-0.8771-1.3981-1.1453-2.279c-0.2757-0.8848-0.4136-1.9075-0.4136-3.0834V39.0031h4.4316v14.1643
	c0,1.0878,0.1685,1.9956,0.4978,2.7501c0.3333,0.7469,0.8159,1.3521,1.4518,1.8117c0.6358,0.4673,1.421,0.8005,2.3441,1.0074
	c0.9307,0.2068,1.9955,0.2988,3.2097,0.2988c0.8694,0,1.6586-0.046,2.3901-0.1302c0.7202-0.0996,1.4057-0.2451,2.0492-0.4252
	c0.6396-0.1838,1.2602-0.4213,1.85-0.6894c0.5937-0.2758,1.199-0.5899,1.808-0.9499V39.0031h4.4315V62H995.7947z"/>
<path class="st0" d="M1010.1419,71.4535v-32.45h3.7154l0.3218,2.0186c0.5554-0.3754,1.1759-0.7124,1.8692-1.0227
	c0.6933-0.3141,1.4517-0.5822,2.2407-0.8044c0.7852-0.2298,1.6163-0.406,2.4743-0.5324c0.8619-0.1302,1.7313-0.1915,2.6352-0.1915
	c2.0262,0,3.8687,0.2681,5.5079,0.7929c1.6356,0.5362,3.0336,1.3138,4.1942,2.3403c1.1528,1.0227,2.0415,2.2752,2.6774,3.7652
	c0.6243,1.49,0.9384,3.1944,0.9384,5.1057c0,1.8692-0.3065,3.5583-0.9269,5.0406c-0.6014,1.49-1.4977,2.7501-2.6506,3.7882
	c-1.1682,1.0495-2.5892,1.8423-4.2783,2.4016c-1.6777,0.5477-3.589,0.8235-5.7225,0.8235c-0.8311,0-1.6508-0.046-2.436-0.1456
	c-0.7968-0.0843-1.559-0.2222-2.2905-0.3983c-0.743-0.1877-1.4326-0.4022-2.08-0.6703c-0.6319-0.2681-1.2294-0.5745-1.7503-0.9269
	v11.0656H1010.1419z M1014.5813,56.7989c0.5439,0.3524,1.1184,0.6665,1.7427,0.9423c0.6014,0.2719,1.2449,0.5094,1.9113,0.7009
	c0.6473,0.1992,1.3367,0.3524,2.0607,0.4405c0.7125,0.1111,1.4517,0.1532,2.2178,0.1532c1.5512,0,2.9302-0.1647,4.1329-0.5247
	c1.1989-0.3601,2.2062-0.9039,3.0221-1.6126c0.8119-0.7201,1.4248-1.6125,1.8423-2.6812c0.4214-1.0801,0.6282-2.325,0.6282-3.7421
	c0-1.421-0.2068-2.6697-0.6282-3.7384c-0.4175-1.0763-1.0304-1.9726-1.8423-2.6965c-0.8159-0.7278-1.8232-1.2678-3.0221-1.6279
	c-1.2026-0.3601-2.5817-0.5401-4.1329-0.5401c-0.7661,0-1.5053,0.0498-2.2178,0.1494c-0.7239,0.1072-1.4133,0.2528-2.0607,0.452
	c-0.6664,0.1839-1.3099,0.429-1.9113,0.7009c-0.6243,0.2758-1.1989,0.5899-1.7427,0.9422V56.7989z"/>
<rect x="279" y="2" class="st0" width="4" height="76"/>
<path class="st0" d="M32.5431,20.1391H12.89L4,62h20.6259c12.8773,0,22.7632-7.8444,25.4597-20.4651
	C52.7209,29.1287,49.2966,20.1391,32.5431,20.1391 M33.0104,41.0753c-0.8465,4.0601-1.8232,7.017-3.294,8.756
	c-1.4057,1.6738-3.1829,2.6544-5.845,2.6544h-1.624l4.8568-22.8552h1.6125c2.6812,0,4.0294,1.0074,4.7227,2.685
	C34.1748,34.0429,33.8798,37.0037,33.0104,41.0753"/>
<path class="st0" d="M69.3365,63.1031c-12.6322,0-18.8104-5.0521-16.6616-15.141l5.9101-27.823h16.5965l-5.7722,27.1374
	c-0.7124,3.2979,0.5899,4.5695,2.3211,4.5695c1.7542,0,3.5736-1.2716,4.286-4.5695l5.776-27.1374h16.5697l-5.9177,27.823
	C90.3033,58.051,81.9686,63.1031,69.3365,63.1031"/>
<path class="st0" d="M114.7928,63.1031c-14.6699,0-19.542-8.9475-16.7421-22.204c2.3824-13.0612,12.0194-21.8708,26.1607-21.8708
	c10.56,0,18.5844,4.2976,16.0181,16.5889h-15.1946c0.7814-4.7419-0.7431-5.6841-2.7808-5.6841
	c-4.3052,0-5.6343,4.4086-7.0821,11.1422c-1.3253,6.3659-1.9994,11.1192,2.1641,11.1192c2.1564,0,3.8762-1.264,5.0368-5.6726h15.547
	C135.4762,58.051,125.169,63.1031,114.7928,63.1031"/>
<polygon class="st0" points="203.79,62 187.205,62 193.7126,31.3924 183.3977,31.3924 185.7725,20.1391 222.9988,20.1391 
	220.6202,31.3924 210.2976,31.3924 "/>
<polygon class="st0" points="233.817,62 217.2396,62 226.1373,20.1391 242.707,20.1391 "/>
<path class="st0" d="M177.6025,20.1391h-21.5069L133.8112,62h15.8841l3.1025-6.726h12.0078L165.001,62h17.1672L177.6025,20.1391z
	 M164.5414,45.0741h-7.0898l7.0285-15.7806h0.1034L164.5414,45.0741z"/>
</svg>
