<svg version="1.1" xmlns="http://www.w3.org/2000/svg" fill='#666' xmlns:xlink="http://www.w3.org/1999/xlink" x="0px" y="0px"
	 viewBox="0 0 22 22" enable-background="new 0 0 22 22" xml:space="preserve">
<path d="M19.8,17.6c0,1.2-0.9,2.1-2.1,2.1H4.3c-1.2,0-2.1-0.9-2.1-2.1v-9h3.3C5.2,9.4,5.1,10.2,5.1,11
	c0,3.3,2.7,6,6,6s6-2.7,6-6c0-0.8-0.2-1.6-0.4-2.3h3.3L19.8,17.6L19.8,17.6z M7.9,8.7c0.7-1,1.8-1.6,3.1-1.6c1.3,0,2.4,0.6,3.1,1.6
	c0.5,0.6,0.7,1.4,0.7,2.3c0,2.1-1.7,3.9-3.9,3.9S7,13.1,7,11C7.1,10.2,7.4,9.4,7.9,8.7L7.9,8.7z M18.9,2.5h0.5V3v3.2h-3.7V2.5H18.9z
	 M17.6,0H4.2C1.9,0,0,1.9,0,4.3v4.5v9C0,20,1.9,22,4.3,22h13.4c2.3,0,4.3-1.9,4.3-4.3v-9V4.3C21.9,1.9,20,0,17.6,0L17.6,0z"/>
</svg>
