	<svg version="1.1" xmlns="http://www.w3.org/2000/svg" xmlns:xlink="http://www.w3.org/1999/xlink" x="0px" y="0px"
	 viewBox="0 0 80 29" style="enable-background:new 0 0 80 29; fill: #666" xml:space="preserve">
<path d="M42.6,24.3c-0.1,0.7-0.2,1.2-0.4,1.5c-0.2,0.3-0.5,0.5-0.9,0.6l-0.3,0l0.4-4l0.3,0c0.5-0.1,0.7,0.1,0.8,0.4
	C42.7,23.1,42.7,23.6,42.6,24.3 M42.1,20.8l-3.3,0.4l-0.7,7.3l3.5-0.4c2.2-0.2,3.7-1.8,3.9-3.9C45.7,21.9,45,20.5,42.1,20.8"/>
<path d="M50.5,19.9L50,24.6c-0.1,0.6-0.3,0.8-0.6,0.9c-0.3,0-0.5-0.2-0.5-0.7l0.5-4.7l-2.8,0.3l-0.5,4.8
	c-0.2,1.7,1,2.5,3.1,2.2c2.1-0.2,3.5-1.2,3.6-3l0.5-4.8L50.5,19.9z"/>
<path d="M57.9,23.6c-0.1,0.8-0.4,1-0.7,1.1c-0.7,0.1-0.7-0.7-0.6-1.9c0.1-1.2,0.3-1.9,1-2c0.3,0,0.6,0.1,0.6,0.9
	l2.6-0.3c0.2-2.1-1.2-2.7-3-2.5c-2.4,0.3-3.9,1.9-4,4.2c-0.2,2.3,0.8,3.7,3.3,3.4c1.8-0.2,3.4-1.2,3.6-3.2L57.9,23.6z"/>
<path d="M65,22.5l-1.2,0.1l0.9-2.8l0,0L65,22.5z M63.1,18.5l-3,7.5l2.7-0.3l0.4-1.2l2-0.2l0.2,1.1l2.9-0.3l-1.6-7
	L63.1,18.5z"/>
<polygon points="74.4,17.2 68.1,17.9 67.9,19.9 69.7,19.7 69.1,25 71.9,24.7 72.5,19.3 74.2,19.2 "/>
<polygon points="74.9,17.1 74.2,24.4 77,24.1 77.7,16.8 "/>
<g transform="translate(0.000000, 0.439700)">
	<path d="M3.8,10.9l2.9,9.9c0,0.2,0,0.4,0,0.6C6.6,22.2,5.9,23,5,23.1l-5,0.6l0.3-2.8l3.2-0.4c0.2,0,0.4-0.2,0.4-0.4
		c0,0,0,0,0-0.1L1,10.4C1,10.2,0.9,9.9,0.9,9.7C1,8.8,1.8,8,2.7,7.9l4.9-0.5l-0.4,2.8l-3,0.3C4,10.5,3.9,10.7,3.8,10.9
		C3.8,10.9,3.8,10.9,3.8,10.9L3.8,10.9z M12,10l-0.9,9.3c0,0.2,0.1,0.3,0.3,0.3l2.7-0.3l-0.3,2.8l-4.3,0.5C8.6,22.7,8,22.1,8,21.3
		l0-0.1L9.2,8.8l0,0c0.1-0.9,0.9-1.7,1.7-1.8l4.3-0.5L15,9.2l-2.7,0.3C12.1,9.6,12,9.8,12,10L12,10z M21.4,13.5l0.4-4.6c0,0,0,0,0,0
		c0-0.2-0.1-0.4-0.3-0.4l-1.8,0.2l-0.5,5.5L21,14C21.2,14,21.4,13.8,21.4,13.5C21.4,13.5,21.4,13.5,21.4,13.5L21.4,13.5z M22.5,16.6
		l1,4.4l-2.9,0.3l-1-4.4L19,17l-0.4,4.6l-2.9,0.3l1.5-15.6l2-0.2L20,5.9l3.4-0.4C24.3,5.5,25,6.1,24.9,7l0,0l-0.7,7.8
		C24,15.7,23.3,16.4,22.5,16.6L22.5,16.6z M28.4,16.1l1.5-0.2l-0.2-5.6L28.4,16.1z M30,18.5l-2.2,0.2l-0.4,1.9l-3.2,0.3l4.4-16
		l0.9-0.1L31,4.7l0.9-0.1l1.3,15.4l-3.1,0.3L30,18.5z M38.6,3.8l1,6.6l2.5-7l0.3,0l2.9-0.3l-1.5,15.7l-2.9,0.3l0.7-7.1l-1.4,3.3
		l-1.3,2.9l-1.3-5.6l-0.7,6.9L34,19.8l1.5-15.7l0.2,0l2.7-0.3L38.6,3.8z M52.8,10c0.7-0.1,1.1,0.4,1.1,1l-0.5,5.1
		c-0.1,0.9-0.9,1.7-1.7,1.8l-3.4,0.4l-2.9,0.3L46.8,3l2-0.2l0.9-0.1l3.4-0.4c0.9-0.1,1.5,0.5,1.4,1.4l0,0l-0.5,4.9
		C54,9.3,53.4,9.9,52.8,10L52.8,10z M49.1,9.5l2.1-0.2l0.3-3.6c0,0,0,0,0,0c0-0.2-0.1-0.4-0.3-0.4l-1.8,0.2L49.1,9.5z M51,11.7
		l-2.1,0.2l-0.3,3.6l1.8-0.2c0.2,0,0.4-0.2,0.4-0.4c0,0,0,0,0,0L51,11.7z M61,16.9l-3.2,0.4l-2.9,0.3l1.5-15.7l2.9-0.3L58,14.4
		l3.2-0.4L61,16.9z M68.3,9.8l-2.8,0.3l-0.3,3.6l3.4-0.4L68.4,16l-3.5,0.4L62,16.7l1.5-15.6l2-0.2l0.9-0.1L70,0.4l-0.3,2.8l-3.6,0.4
		l-0.4,4l2.8-0.3L68.3,9.8z M75.7,7.5l0.4-4.6c0,0,0,0,0,0c0-0.2-0.1-0.4-0.3-0.4L74,2.7l-0.5,5.5L75.3,8C75.5,8,75.6,7.8,75.7,7.5
		C75.6,7.6,75.6,7.5,75.7,7.5L75.7,7.5z M79.1,1.1l-0.7,7.8c-0.1,0.8-0.8,1.5-1.6,1.7l1,4.4l-2.9,0.3l-1-4.4L73.2,11l-0.4,4.6
		l-2.9,0.3l1.5-15.6l2-0.2l0.9-0.1l3.4-0.4C78.6-0.5,79.2,0.1,79.1,1.1L79.1,1.1z"/>
</g>
</svg>
