<?xml version="1.0" encoding="UTF-8"?>
<svg xmlns="http://www.w3.org/2000/svg" fill="#666" xmlns:xlink="http://www.w3.org/1999/xlink" id="Livello_1" x="0px" y="0px" viewBox="0 0 320 125" style="enable-background:new 0 0 320 125;" width="320" height="125" xml:space="preserve">
<g id="Tavola_disegno_1">
	<g id="Raggruppa_11">
		<g id="Raggruppa_5">
			<g id="Raggruppa_3">
				<g id="Raggruppa_2">
					<g id="Raggruppa_1">
						<path id="Tracciato_1" class="st0" d="M141.7,16.8l-3.8,0.4l-2.2,0.2l-11,40.3l8-0.9l1.1-4.7l5.6-0.6l0.2,4.6l7.7-0.9        L144,16.5L141.7,16.8z M135.3,45.6l3.3-14.6l0.6,14.2L135.3,45.6z"></path>
						<path id="Tracciato_2" class="st0" d="M182.4,12.4l-7.3,0.8l-3.7,39.5l7.3-0.8l0,0l0.7-7l0,0L182.4,12.4z"></path>
						<path id="Tracciato_3" class="st0" d="M126.4,22.6c0.3-1.7-0.9-3.4-2.6-3.6c-0.3-0.1-0.7-0.1-1,0l-8.6,1l-2.2,0.2l-5.1,0.6        l-3.7,39.4l7.3-0.8l1.1-11.5l1.6-0.2l2.5,11.2l7.3-0.8l-2.5-11.2c2.1-0.5,3.7-2.1,4.1-4.3L126.4,22.6L126.4,22.6z M117.6,39.1        C117.6,39.1,117.6,39.1,117.6,39.1c-0.1,0.6-0.5,1-1,1.2l-4.4,0.5l1.3-13.8l4.4-0.5c0.4,0,0.8,0.3,0.8,0.7c0,0.1,0,0.1,0,0.2        c0,0,0,0.1,0,0.1L117.6,39.1z"></path>
						<path id="Tracciato_4" class="st0" d="M172.4,17.2c0.1-1.7-1.2-3.3-2.9-3.4c-0.2,0-0.5,0-0.7,0l-10.9,1.2l0,0l-5,0.5l-0.4,4.1        l0,0l0,0l-1.1,11.2L149.6,51v0.1l-0.4,4.1l7.3-0.9l7.6-0.8l0,0l1-0.1c2.3-0.3,4.1-2.2,4.4-4.5v-0.1l2.9-31.2V17.2z         M164.7,22.2l-2.2,23.5c-0.1,0.5-0.5,0.9-1,1l-3.5,0.4h-0.1l-0.7,0.1l0.1-0.9c0,0,0,0,0,0l2.2-23.5v-0.1l0.1-0.9l0.8-0.1        l0.1,0l3.5-0.4C164.3,21.4,164.7,21.7,164.7,22.2C164.7,22.2,164.7,22.2,164.7,22.2L164.7,22.2z"></path>
					</g>
					<path id="Tracciato_5" class="st0" d="M200.4,10.4l-10.9,1.2l0,0l-1,0.1c-2.3,0.3-4.1,2.2-4.4,4.5v0.1l-2.9,31.2l0,0.3       c-0.1,1.7,1.2,3.3,2.9,3.4c0.2,0,0.5,0,0.7,0l10.9-1.2l0,0l1-0.1c2.3-0.4,4.1-2.2,4.4-4.5v-0.1l2.9-31.2l0-0.3       c0.1-1.7-1.2-3.3-3-3.4C200.9,10.4,200.6,10.4,200.4,10.4z M196.3,18.8l-2.2,23.6c-0.1,0.5-0.5,0.9-1,1l-3.5,0.4       c-0.4,0-0.8-0.3-0.8-0.8c0,0,0-0.1,0-0.1l2.2-23.6c0.1-0.5,0.5-0.9,1-1.1l3.5-0.4C196,17.9,196.3,18.3,196.3,18.8       C196.3,18.7,196.3,18.8,196.3,18.8L196.3,18.8z"></path>
				</g>
			</g>
			<g id="Raggruppa_4">
				<path id="Tracciato_6" class="st0" d="M107.3,106l-8.3,0.9L97.1,125l8.7-0.9c5.3-0.4,9.4-4.6,9.8-9.8      C116.2,108.9,114.4,105.2,107.3,106 M108.5,114.8c0,1.3-0.4,2.7-1,3.9c-0.5,0.8-1.4,1.3-2.3,1.4l-0.7,0.1l1-9.9l0.7-0.1      c0.8-0.2,1.7,0.2,2.1,0.9C108.6,112.3,108.7,113.6,108.5,114.8"></path>
				<path id="Tracciato_7" class="st0" d="M128.2,103.7l-1.2,11.8c-0.1,1.4-0.9,2.1-1.6,2.1c-0.7,0.1-1.3-0.4-1.2-1.8l1.2-11.7      l-7,0.8l-1.3,12.1c-0.4,4.4,2.4,6.2,7.7,5.6c5.3-0.6,8.6-3.1,9.1-7.4l1.2-12.1L128.2,103.7z"></path>
				<path id="Tracciato_8" class="st0" d="M146.5,113.1c-0.3,1.9-1,2.6-1.9,2.6c-1.8,0.2-1.7-1.9-1.4-4.6c0.3-2.9,0.7-4.8,2.5-5      c0.9-0.1,1.5,0.2,1.4,2.3l6.4-0.7c0.5-5.3-3-6.8-7.5-6.3c-5.5,0.4-9.9,4.9-10.1,10.4c-0.6,5.7,1.9,9.3,8.1,8.6      c4.6-0.1,8.4-3.5,9-8.1L146.5,113.1z"></path>
				<path id="Tracciato_9" class="st0" d="M159.5,100.4l-7.5,18.7l6.7-0.7l1-3l5.1-0.5l0.4,2.8l7.2-0.8l-3.8-17.5L159.5,100.4z       M164.2,110.5l-3,0.3l2.2-7h0.1L164.2,110.5z"></path>
				<path id="Tracciato_10" class="st0" d="M187.8,97.3L172.1,99l-0.5,4.9l4.4-0.5l-1.4,13.3l7-0.8l1.4-13.3l4.4-0.5L187.8,97.3z"></path>
				<path id="Tracciato_11" class="st0" d="M189.1,97.2l-1.9,18.1l7-0.8l1.9-18.1L189.1,97.2z"></path>
			</g>
			<path id="Tracciato_12" class="st0" d="M199.8,57.7l-1.9,19.8c-0.4,2.1-2,3.8-4.1,4.3l2.5,11.2l-7.3,0.8l-2.5-11.2l-1.6,0.2     l-1.1,11.6l-7.3,0.8l3.9-39.4l5.1-0.5l2.3-0.2l8.6-0.9c1.7-0.3,3.4,0.9,3.6,2.7C199.8,57,199.8,57.3,199.8,57.7L199.8,57.7z      M190.9,74.1l1.1-11.7c0,0,0-0.1,0-0.1c0.1-0.4-0.2-0.8-0.6-0.9c-0.1,0-0.1,0-0.2,0l-4.5,0.5l-1.4,13.8l4.5-0.5     C190.4,75.1,190.8,74.7,190.9,74.1C190.9,74.1,190.9,74.1,190.9,74.1 M172.3,79.6l-7,0.7l-0.9,9l8.7-0.9l-0.6,7l-8.8,0.9     l-7.3,0.8l3.9-39.4l5.1-0.5l2.2-0.2l9.2-1l-0.8,7l-9,1l-1,10.2l7-0.7L172.3,79.6z M153.8,97.4l-8.1,0.9l-7.3,0.8l3.9-39.5     l7.3-0.8l-3.2,32.5l8.1-0.9L153.8,97.4z M128.6,84.2l-5.4,0.6l-0.9,9l4.5-0.5c0.5-0.1,0.9-0.5,1-1.1c0,0,0-0.1,0-0.1L128.6,84.2z      M123.9,78.7l5.4-0.6l0.9-9.1c0,0,0,0,0-0.1c0.1-0.4-0.2-0.8-0.6-0.9c-0.1,0-0.1,0-0.2,0l-4.5,0.5L123.9,78.7z M133.2,80.1     c1.4-0.2,2.6,0.7,2.9,2.1c0,0.2,0,0.3,0,0.5l-1.3,12.8c-0.3,2.3-2.1,4.1-4.4,4.5l-8.7,0.9l-7.3,0.8l3.9-39.4l5.1-0.5l2.2-0.2     l8.7-0.9c1.7-0.3,3.4,1,3.6,2.7c0,0.3,0,0.6,0,1v0.1l-1.2,12.3C136.3,78.4,134.9,79.8,133.2,80.1 M97.6,64.3l2.5,16.7l6.3-17.6     l0.7-0.1l7.3-0.8l-3.8,39.5l-7.3,0.8l1.8-17.9l-3.5,8.4l-3.4,7.3l-3.1-14.2l-1.7,17.4l-7.3,0.8l3.9-39.5l0.5,0l6.9-0.7L97.6,64.3     z M75.8,101.1l-5.6,0.6l-1.1,4.7l-8,0.9L72.4,67l2.2-0.2l3.8-0.4l2.2-0.2l3.2,38.8l-7.7,0.8L75.8,101.1z M71.7,95.2l3.8-0.4     l-0.5-14.2L71.7,95.2z M56.9,96.3l2.5,11.2l-7.3,0.8l-2.5-11.2l-1.6,0.2l-1.1,11.6l-7.3,0.8l3.9-39.4l5.1-0.5l2.2-0.2l8.7-0.9     c1.7-0.3,3.4,0.9,3.6,2.7c0.1,0.3,0,0.7,0,1v0.1L61,92C60.6,94.2,59,95.8,56.9,96.3 M54.1,88.6l1.2-11.7c0,0,0-0.1,0-0.1     c0.1-0.4-0.2-0.8-0.6-0.9c-0.1,0-0.1,0-0.2,0L50,76.4l-1.4,13.8l4.5-0.5C53.6,89.6,54,89.2,54.1,88.6     C54.1,88.6,54.1,88.6,54.1,88.6 M30.3,79.5L28,103c-0.1,0.4,0.3,0.8,0.7,0.9c0,0,0.1,0,0.1,0l6.8-0.7l-0.8,7l-10.9,1.2     c-1.7,0.3-3.3-0.9-3.6-2.6c0-0.2,0-0.5,0-0.7l0-0.3l3.1-31.2v-0.1c0.3-2.3,2.1-4.2,4.4-4.5l10.9-1.2l-0.6,7l-6.7,0.7     C30.8,78.5,30.4,79,30.3,79.5 M9.8,81.8l7.1,24.9c0.1,0.5,0.1,0.9,0.1,1.4c-0.3,2.3-2.1,4.2-4.4,4.5L0,114l0.8-7l8.1-0.9     c0.5-0.1,0.9-0.5,1-1.1c0,0,0-0.1,0-0.1L2.7,80.5c-0.2-0.6-0.3-1.3-0.2-1.9c0.3-2.3,2.1-4.2,4.4-4.5l12.3-1.3l-0.9,7l-7.5,0.8     c-0.5,0.1-0.9,0.5-1,1.1C9.8,81.7,9.8,81.8,9.8,81.8"></path>
		</g>
		<g id="Raggruppa_10">
			<g id="Raggruppa_8">
				<g id="Raggruppa_6">
					<path id="Tracciato_13" class="st0" d="M317.2,11c-0.1-0.8-1.3-4.5-13.9-10.7c-2.7-0.8-5.6-0.1-7.7,1.8l-0.7,0.6       c-6.7,5.5-12.5,11.9-17.3,19l-0.1,0.1l0,0c0,0,0,0.1-0.1,0.1c-0.3,0.5-0.5,1-0.7,1.5c-0.1,0.2-0.2,0.5-0.2,0.7       c-0.8,2.2-0.4,3.6,1.3,9.1c-1.9,2.2-3.1,4.9-3.4,7.7c0,0.7,0.3,1.3,0.7,1.9c-1.5,1.9-16.5,20.8-18.1,22.2l-0.2,0.2       c-1.8,1.6-3.7,3.5-8.4,0.3l-0.4-0.3l-9.4,11.5l4.6,3.8c0.5,1.7,1.4,3.3,2.8,4.5c1.3,1,2.9,1.6,4.5,1.5l4.7,3.9l9.4-11.5       l-0.5-0.4c-2.8-2-3.5-5.8-1.5-8.6c0,0,0.1-0.1,0.1-0.1c3.4-4.5,16.6-20.5,17.8-21.9c1.2,0.7,2.7,0.8,4,0.3       c1.9-1.1,3.6-2.5,5.1-4.1l0.1-0.1c0.7,0.8,2,2,3.3,2c1.5,0,2.9-0.6,4-1.6c7.5-5.8,14.3-12.3,20.4-19.5c0.9-1.2,1.4-2.8,1.3-4.3       c-0.1-0.5-0.1-1-0.1-1.5C318.7,16.2,318.2,13.5,317.2,11z M315.7,10.3L315.7,10.3L315.7,10.3L315.7,10.3z M298.9,40.9       c-0.2-0.3-0.2-0.7-0.1-1.1c0.7-1.3,1.4-2.5,2.3-3.6c0.1,0.6,0.3,1.1,0.5,1.6c0,0.1,0.1,0.1,0.2,0.1c0.1,0,0.1-0.1,0.1-0.1       c0.1-0.9,0.1-1.7,0-2.6c0.4-0.6,0.9-1.1,1.4-1.7c0.2,0.7,0.4,1.4,0.6,2.1c0,0.1,0.1,0.1,0.2,0.1c0.1,0,0.1-0.1,0.1-0.1       c0.1-1,0.1-2-0.1-3c0.5-0.5,1-1,1.5-1.5c0.2,0.7,0.4,1.4,0.6,2.1c0,0.1,0.1,0.1,0.2,0.1c0.1,0,0.1-0.1,0.1-0.1       c0.1-1,0.1-1.9-0.1-2.9c0.5-0.5,1-0.9,1.4-1.3c0.2,0.8,0.4,1.6,0.6,2.4c0,0.1,0.1,0.1,0.2,0.1c0.1,0,0.1-0.1,0.1-0.1       c0.1-1,0.1-2-0.1-3.1c0.5-0.5,1-0.9,1.5-1.3c0.2,0.7,0.3,1.4,0.5,2.1c0,0.1,0.1,0.1,0.2,0.1c0.1,0,0.1-0.1,0.1-0.1       c0.1-0.9,0.1-1.8,0-2.7c0.6-0.4,1.1-0.8,1.5-1.1c0.1,0.5,0.3,1,0.4,1.5c0,0.1,0.1,0.1,0.2,0.1c0.1,0,0.1-0.1,0.1-0.1       c0.1-0.7,0.1-1.3,0-2c0.8-0.5,1.5-0.7,1.8-0.5c0.1,0.1,0.2,0.2,0.2,0.4h0l0,0.5c-0.1,0.7-0.4,1.4-0.9,1.9l0,0       c-4.6,5.1-9.6,9.8-14.9,14.1C299.2,41.1,299,41,298.9,40.9z M284.2,15.1c0,0,0.1,0,0.1,0.1c1.4,0.5,2.7,1.1,3.9,2       c0.1,0.1,0.2,0,0.2,0c0-0.1,0-0.1,0-0.2c-0.9-1.2-2-2.2-3.4-2.8c0.6-0.8,1.3-1.5,1.9-2.1h0c1.4,0.5,2.7,1.1,3.9,2       c0.1,0,0.2,0,0.2,0c0,0,0-0.1,0-0.2c-0.8-1.2-2-2.1-3.2-2.8c0.6-0.6,1.1-1.2,1.6-1.7c1.3,0.5,2.5,1.1,3.6,1.9       c0.1,0.1,0.3-0.1,0.2-0.2c-0.8-1.1-1.8-2-3-2.6c0.6-0.6,1.1-1.1,1.6-1.5c1.4,0.5,2.7,1.1,3.8,2c0.1,0.1,0.2,0,0.2,0       c0-0.1,0-0.1,0-0.2c-0.8-1.1-1.8-2-3.1-2.7c0.6-0.5,1.2-1,1.7-1.5c1.4,0.5,2.7,1.1,3.8,2c0.1,0.1,0.2,0,0.2,0       c0-0.1,0-0.1,0-0.2c-0.8-1.1-1.8-2-3-2.6l0.2-0.1l0.7-0.6c1.3-1.1,2.8-1.7,4.5-2c-0.6,0.3-1.1,0.9-1.3,1.5c0,0.1,0,0.1,0.1,0.1       c0,0,0.1,0,0.1,0c0.5-0.4,1.1-0.8,1.7-1c0.5-0.2,1.1-0.2,1.7-0.2l0.3,0.2c0.1,0,0.1,0.1,0.2,0.1l0.1,0l-0.2,0.1       c-0.8,0.3-1.7,0.9-1.8,1.7c0,0.1,0,0.1,0.1,0.1c0,0,0.1,0,0.1,0c0.5-0.4,1.1-0.8,1.7-1c0.5-0.2,1.1-0.2,1.7-0.1l0.4,0.2       c0,0,0.1,0,0.1,0.1l0.2,0.1c-0.2,0.1-0.4,0.2-0.6,0.2c-0.9,0.3-1.5,1-1.8,1.9c0,0.1,0,0.1,0.1,0.1c0,0,0.1,0,0.1,0       c0.5-0.4,1.1-0.8,1.7-1.1c0.6-0.3,1.2-0.4,1.9-0.4c0.3,0.2,0.5,0.3,0.8,0.5c-0.2,0.1-0.4,0.1-0.5,0.2c-0.9,0.3-1.6,1-1.9,1.9       c0,0.1,0,0.1,0.1,0.1c0,0,0.1,0,0.1,0c0.5-0.5,1.1-0.9,1.8-1.2c0.6-0.2,1.2-0.3,1.8-0.3c0.3,0.2,0.7,0.4,1,0.6       c-0.3,0.1-0.5,0.2-0.7,0.3c-0.9,0.3-1.7,1.1-2,2c0,0.1,0,0.1,0.1,0.1c0,0,0.1,0,0.1,0c0.6-0.5,1.2-0.9,1.9-1.3       c0.6-0.2,1.2-0.4,1.9-0.3c0.4,0.3,0.7,0.5,1.1,0.8c-0.3,0.1-0.6,0.2-0.9,0.3c-0.9,0.3-1.7,1-2,1.9c0,0.1,0,0.1,0.1,0.1       c0,0,0.1,0,0.1,0c0.5-0.5,1.2-0.9,1.8-1.2c0.4-0.1,1.7-0.5,2.1-0.2l0,0c0.4,0.4,0.8,0.8,1.2,1.2c-1.3,0.6-2.3,1.6-2.9,2.9       c-0.3,0.9-0.3,1.8,0.1,2.7c0,0.3,0,0.7-0.2,1c-0.1,0.3-0.3,0.5-0.4,0.8c-1.8-3.1-4.6-5.5-8-6.6c0,0,0,0,0,0       c1.8,1.3,3.6,2.8,5.1,4.4c0.8,1.1,1.4,2.4,1.9,3.7c-0.4,0.5-0.9,1.1-1.4,1.7c-1.7-3.3-4.6-5.8-8.1-6.9c0,0,0,0,0,0       c1.8,1.3,3.6,2.8,5.1,4.4c0.8,1.2,1.4,2.4,1.9,3.7c-0.4,0.5-0.9,1-1.4,1.4c-1.8-3.1-4.6-5.4-7.9-6.5c0,0,0,0,0,0c0,0,0,0,0,0       c1.8,1.3,3.6,2.8,5.1,4.4c0.7,1,1.3,2.1,1.7,3.3l-1.2,1.2c-1.8-2.9-4.6-5-7.8-6.2c0,0,0,0,0,0c1.8,1.3,3.6,2.8,5.1,4.4       c0.6,0.9,1.1,1.9,1.5,2.9c-0.6,0.5-1.1,1.1-1.7,1.6c-1.9-2.6-4.5-4.6-7.5-5.7c0,0,0,0,0,0c1.8,1.3,3.6,2.8,5.1,4.4       c0.5,0.7,0.9,1.5,1.2,2.3c-0.7,0.6-1.3,1.1-1.8,1.6c-1.9-2.3-4.3-4.1-7.1-5.1c0,0,0,0,0,0c0,0,0,0,0,0c1.8,1.3,3.6,2.8,5.1,4.4       c0.4,0.5,0.7,1,0.9,1.5c-0.4,0.4-0.9,0.7-1.4,1l0,0c-1.4-0.9-3.1-1.1-6.3,3.1c-0.3-0.2-0.7-0.4-1.1-0.7c0-0.3,0.1-0.6,0.2-0.9       c0.3-0.8,0.7-1.6,1.2-2.3c0.1-0.2-0.1-0.3-0.2-0.2c-0.8,0.6-1.5,1.4-1.9,2.3c-0.1,0.1-0.1,0.3-0.2,0.5       c-0.3-0.2-0.6-0.4-0.9-0.6c0.1-0.4,0.1-0.8,0.2-1.1c0.3-0.8,0.7-1.6,1.2-2.4c0.1-0.2-0.1-0.3-0.2-0.2c-0.8,0.6-1.5,1.4-1.9,2.3       c-0.1,0.2-0.2,0.4-0.3,0.6c-0.3-0.2-0.6-0.5-0.9-0.7c0.1-0.4,0.1-0.9,0.2-1.2c0.3-0.8,0.7-1.6,1.2-2.3c0.1-0.2-0.1-0.3-0.2-0.2       c-0.8,0.6-1.5,1.4-1.9,2.3c-0.1,0.2-0.2,0.4-0.3,0.6c-0.3-0.2-0.6-0.5-0.9-0.8c0.1-0.4,0.1-0.8,0.2-1.1       c0.3-0.8,0.7-1.6,1.2-2.3c0.1-0.2-0.1-0.3-0.2-0.2c-0.8,0.6-1.5,1.4-1.9,2.3c-0.1,0.2-0.2,0.3-0.2,0.5       c-0.3-0.3-0.6-0.6-0.9-0.9c0-0.3,0.1-0.6,0.2-0.9c0.3-0.8,0.7-1.6,1.2-2.3c0.1-0.2-0.1-0.3-0.2-0.2c-0.8,0.6-1.5,1.4-1.9,2.3       c0,0.1-0.1,0.2-0.1,0.3c-0.3-0.3-0.6-0.7-0.9-1c0-0.2,0.1-0.3,0.1-0.5c0.3-0.8,0.7-1.6,1.2-2.3c0.1-0.2-0.1-0.3-0.2-0.2       c-0.8,0.5-1.4,1.3-1.8,2.2c-0.4-0.5-0.8-1.1-1.2-1.6c0.2-0.5,0.4-1,0.7-1.7l0.1-0.1c0.9-1.3,1.8-2.5,2.7-3.6l0.1,0       c1.4,0.5,2.7,1.1,3.9,2c0.1,0.1,0.2,0,0.2,0c0-0.1,0-0.1,0-0.2c-0.9-1.2-2-2.2-3.4-2.8C282.8,16.8,283.5,15.9,284.2,15.1z        M288.9,43.2c-1.4,1.5-3,2.8-4.8,3.8c-1.1,0.3-2.3,0.2-3.3-0.5l-0.4-0.3l-0.3,0.4c-0.1,0.1-14.3,17.1-18.2,22.4       c-2.4,3.1-1.8,7.5,1.2,10l-7.9,9.7l-4.2-3.4h-0.2c-3.1,0-5.8-2.2-6.3-5.2l0-0.2l-4-3.3l8-9.8c5.1,3.3,7.6,1,9.4-0.7l0.2-0.2       c1.9-1.7,18.2-22.3,18.5-22.8l0.3-0.5l-0.4-0.4c-0.4-0.4-0.7-0.9-0.7-1.4c-0.3-2.8,3.3-7.1,3.3-7.1l0.1-0.1       c0.7,0,1.3,0.1,2,0.3c1.9,1,4.9,2.9,4.1,4.4c-2,1.2-3.1,3.5-2.9,5.8c-0.1,0.8,0.2,1.5,0.6,2.1c0,0,0,0,0,0c0,0,0,0,0,0       c0-0.5,0-1,0.1-1.6c0.1-0.6,0.3-1.2,0.5-1.8c0.5-1.1,1.4-1.8,2.6-2.2c0.8-0.3,1.6-0.3,2.4-0.1c-0.1,0-0.2,0.1-0.3,0.2       c-0.7,0.3-1.3,0.7-1.9,1.1c-1.3,0.7-2.5,2-2.3,3.2c0,0.3,0.3,0.4,0.5,0.4c0.1,0,0.1,0,0.2-0.1c1.6-1,3.1-2.3,4.2-3.9       c0.1-0.1,0.2-0.2,0.3-0.2l0.1,0.2c0.2,0.2,0.3,0.4,0.5,0.6L288.9,43.2z"></path>
					<path id="Tracciato_14" class="st0" d="M282.1,38L282.1,38c-1.1-0.9-1.9-1.3-2.7-1.1c-1.1,0.3-1.6,1.6-2.2,3.3       c-0.2,0.9-0.1,1.8,0.1,2.7c-0.1,0.1-0.1,0.2-0.1,0.3c-2,3.8-4.4,7.4-7.1,10.7c0,0,0,0,0,0c1.3-1.2,5.1-5.9,6.2-7.3       c0.4-0.6,0.9-1.1,1.3-1.7c0.1,0,0.2,0,0.2,0c0.5,0.2,0.3,0.3,0.2,0.6c-0.1,0.3-0.2,0.6-0.4,0.9c-0.1,0.2-0.2,0.3-0.3,0.5       c-0.1,0.2-0.2,0.2-0.2,0.3l-13.9,17.3c-0.7,0.6-1.3,1.2-2,1.8c-0.5,0.4-1,0.7-1.5,1.1c0,0,0-0.1,0-0.1c0.3-0.4,0.6-0.8,1-1.1       c2.5-2.9,4.8-6,6.9-9.2c0.1-0.1-0.1-0.1-0.1-0.1c-1.5,1.6-6,7.1-7.5,8.7c-0.8,0.8-1.7,1.6-2.5,2.4c-0.4,0.3-0.9,0.5-1.3,0.7       c-1,0.3-2,0.6-3.1,0.8c-0.2,0-0.5,0-0.7,0c0,0,0,0,0,0c-0.7-0.1-1.4-0.2-2.1-0.5c-0.3-0.1-0.7-0.3-1-0.5l-0.1,0       c-0.2-0.2-0.5-0.3-0.7-0.4c-0.1-0.1-0.3-0.1-0.4,0c-0.1,0-0.1,0.1-0.2,0.1c-0.9,0.9-1.7,1.9-2.5,3l1.5,1.1c1-1,2.2-1.8,3.5-2.4       l0.4-0.1c0.2,0,0.4-0.1,0.6-0.1c0.3,0,0.6,0,0.9-0.1c2.1,0.3,4.1,1.1,5.8,2.5c0.1,0.1,0.1,0.1,0.2,0.2c0.6,0.8,1.1,1.6,1.4,2.5       c0,0,0.1,0,0.1,0c0-0.2-0.1-0.4-0.2-0.6c0,0,0,0,0,0c0-0.3,0-0.7,0.1-1c0.2-1.1,0.5-2.2,1-3.2c0.2-0.5,0.5-0.9,0.8-1.3l18-22.4       c0.2-0.2,0.3-0.3,0.5-0.5c0.1,0,0.1-0.1,0.1-0.1l0.1-0.1c0.4-0.2,0.9-0.7,1.5-3c0.2-0.8,0.4-1.5,0.8-2.2       C282.9,39.6,282.7,38.6,282.1,38z M279.8,40c0.1-0.1,0.1-0.3,0.2-0.4C280.2,39,280,39.6,279.8,40z"></path>
					<path id="Tracciato_15" class="st0" d="M288.6,25.4c-0.1,0.2,0.2,0.3,0.3,0.2c2.4-2.8,4.5-5.9,7-8.7s5.3-5.2,7.8-8       c0.1-0.1,0-0.2-0.1-0.1C297.3,13,292.2,18.7,288.6,25.4z"></path>
					<path id="Tracciato_16" class="st0" d="M286.3,23.4c2.4-2.8,4.5-5.9,7-8.7s5.3-5.2,7.8-8c0.1-0.1,0-0.2-0.1-0.1       c-6.2,4.3-11.4,10-14.9,16.7C286,23.4,286.2,23.5,286.3,23.4z"></path>
					<path id="Tracciato_17" class="st0" d="M257.9,74.4c-1.2-2.5-4.1-3.8-6.7-3c-0.1,0-0.1,0.1-0.1,0.1c0,0.1,0.1,0.1,0.1,0.1       c2.4-0.3,4.7,0.9,5.8,3.1c1.2,2.8-0.2,6-3,7.2c-2.8,1.2-6-0.2-7.2-3c-0.2-0.4-0.3-0.9-0.4-1.3c0-0.2-0.1-0.3-0.3-0.4       c-0.2,0-0.3,0.1-0.4,0.3c-1,1.9,0.8,4.3,2.4,5.3c2.6,1.5,5.9,1.1,8-1C258.5,80,259.1,77,257.9,74.4z"></path>
					<path id="Tracciato_18" class="st0" d="M245.6,74.1l-1.5-1.1c-0.8,1.1-1.7,2.2-2.6,3.3c-0.1,0.2-0.1,0.5,0.1,0.6       c0.8,0.7,1.7,1.3,2.6,1.8v0c0.1,0.1,0.2,0,0.2-0.1c-0.1-0.4-0.1-0.7-0.1-1.1C244.5,76.4,244.9,75.2,245.6,74.1z M243.5,77.7       L243.5,77.7L243.5,77.7L243.5,77.7z"></path>
					<path id="Tracciato_19" class="st0" d="M253.7,85c-0.3,0.1-0.7,0.2-1,0.2c-0.1,0-0.1,0.1-0.1,0.1c0,0,0,0.1,0.1,0.1h0       c0.7,0.7,1.4,1.4,2.2,2c0.2,0.1,0.4,0.1,0.6-0.1c0.8-1,1.7-2.1,2.6-3.1l-1.4-1.1C255.8,84,254.8,84.6,253.7,85z M253.8,85.8       L253.8,85.8L253.8,85.8L253.8,85.8z"></path>
					<path id="Tracciato_20" class="st0" d="M259.8,75.6c0,0.3,0,0.7,0.1,1c0,0.3,0,0.7-0.1,1c-0.3,1.4-0.9,2.8-1.7,4l1.4,1.1       c0.8-1,1.7-2,2.4-3.1c0-0.1,0.1-0.1,0.1-0.2c0.1-0.1,0-0.3,0-0.4c-0.1-0.2-0.3-0.4-0.5-0.6l0,0c-0.2-0.3-0.5-0.6-0.7-0.9       C260.3,76.9,260,76.3,259.8,75.6C259.8,75.6,259.8,75.6,259.8,75.6C259.8,75.6,259.8,75.6,259.8,75.6z"></path>
				</g>
				<g id="Raggruppa_7">
					<path id="Tracciato_21" class="st0" d="M293.8,60.7l-0.4,0.4c-3.9,4.1-6.2,2.7-8.3,1.4l-0.3-0.2c-0.9-0.5-5.6-4.4-10.5-8.4v0       c0,0.4-0.1,0.9-0.3,1.3c4.7,3.9,9.2,7.5,10.2,8.1l0.3,0.2c2.1,1.3,5,3,9.4-1.2l9.8,7.9l-3.3,4v0.2c0,3.1-2.1,5.8-5.2,6.4       l-0.2,0l-3.4,4.2l-9.7-7.9c2.5-3,2.1-7.5-0.9-10c-2-1.8-6.1-5.1-10.2-8.5c-0.2,0.2-0.4,0.4-0.5,0.6l-0.2,0.3       c4.2,3.4,8.3,6.8,10.2,8.5c2.5,2.3,2.8,6.2,0.5,8.7c0,0-0.1,0.1-0.1,0.1l-0.4,0.5l11.5,9.4l3.9-4.7c1.6-0.3,3.1-1.1,4.1-2.4       c1.1-1.4,1.7-3.1,1.8-4.9l3.8-4.6L293.8,60.7z"></path>
					<path id="Tracciato_22" class="st0" d="M265.9,55.8c0.2-0.2,0.4-0.4,0.6-0.7c-4.3-3.4-7.8-6.2-7.8-6.2l-0.4-0.3l-0.4,0.3       c-0.8,0.8-2,1.2-3.1,1.1c-2-0.7-3.8-1.6-5.5-2.8l-1.1-0.7c0.1-0.2,0.2-0.5,0.3-0.7c0-0.1,0.1-0.1,0.1-0.2l0.4,0.2       c1.4,1.3,3.1,2.3,4.9,3c0.2,0.1,0.5,0,0.6-0.3c0-0.1,0-0.1,0-0.2c-0.1-1.2-1.5-2.2-2.9-2.7c-0.7-0.3-1.3-0.6-2-0.7       c-0.1-0.1-0.2-0.1-0.3-0.1c0.7-0.4,1.6-0.6,2.4-0.4c1.2,0.1,2.2,0.7,2.9,1.6c0.3,0.5,0.6,1.1,0.9,1.7c0.2,0.5,0.3,1,0.4,1.5       c0,0,0,0,0,0c0,0,0,0,0,0c0.3-0.7,0.4-1.5,0.2-2.2c-0.3-2.3-1.9-4.3-4.1-5.1c-1-1.3,1.5-3.8,3.2-5.2c0.5-0.4,1.2-0.6,1.8-0.7       l0.1,0.1c0,0,4.4,3.5,4.7,6.3c0.1,0.6-0.1,1.1-0.4,1.6l-0.4,0.4l0.4,0.4c0.2,0.1,3.6,3,7.8,6.5c0.2-0.3,0.4-0.6,0.7-0.9       c-3.6-3-6.7-5.5-7.4-6.1c0.3-0.6,0.5-1.3,0.4-2c-0.9-2.8-2.6-5.2-4.9-6.9c0.5-5.8,0.6-7.2-0.6-9.2c-0.1-0.2-0.2-0.4-0.4-0.7       c-0.3-0.5-0.6-0.9-1-1.3c0,0,0-0.1-0.1-0.1l0,0L256,24c-6.2-6-13.2-11.1-20.8-15.1l-0.8-0.4C232,7,229,6.9,226.5,8.2       C215.4,16.8,215,20.7,215,21.4c-0.4,2.7-0.4,5.5,0.1,8.2c0.1,0.5,0.2,1,0.2,1.5c0.2,1.5,0.9,2.9,2.1,3.9       c7.4,5.8,15.5,10.8,23.9,15c1.3,0.7,2.8,1,4.3,0.8c1.3-0.2,2.3-1.7,2.8-2.6l0.2,0.1c1.8,1.3,3.8,2.3,5.8,2.9       c1.4,0.2,2.8-0.2,3.8-1.1c0.6,0.5,3.7,2.9,7.4,5.9C265.8,55.9,265.8,55.9,265.9,55.8z M239,47c-0.1,0.1-0.2,0.2-0.4,0.3       c-6.1-3.2-11.9-6.8-17.5-10.8l0,0c-0.6-0.4-1-1-1.3-1.7l-0.1-0.5h0c0-0.1,0.1-0.3,0.1-0.4c0.3-0.3,0.9-0.2,1.9,0.1       c0.1,0.7,0.2,1.3,0.4,1.9c0,0.1,0.1,0.1,0.2,0.1c0.1,0,0.1-0.1,0.1-0.1c0.1-0.5,0.1-1,0.1-1.6c0.5,0.2,1.1,0.5,1.7,0.8       c0.1,0.9,0.3,1.8,0.5,2.6c0,0.1,0.1,0.1,0.2,0.1c0.1,0,0.1-0.1,0.1-0.1c0-0.7,0.1-1.4,0.1-2.1c0.5,0.3,1.1,0.6,1.7,0.9       c0,1,0.2,2,0.5,3c0,0.1,0.1,0.1,0.2,0.1c0.1,0,0.1-0.1,0.1-0.1c0.1-0.8,0.1-1.6,0.2-2.4c0.5,0.3,1.1,0.6,1.7,1       c0,1,0.2,1.9,0.5,2.9c0,0.1,0.1,0.1,0.2,0.1c0.1,0,0.1-0.1,0.1-0.1c0.1-0.7,0.1-1.4,0.1-2.1c0.6,0.4,1.2,0.8,1.8,1.2       c0,1,0.1,2,0.5,2.9c0,0.1,0.1,0.1,0.2,0.1c0.1,0,0.1-0.1,0.1-0.1c0.1-0.7,0.2-1.5,0.2-2.2c0.6,0.4,1.1,0.9,1.7,1.4       c0,0.9,0.2,1.7,0.5,2.6c0,0.1,0.1,0.1,0.2,0.1c0.1,0,0.1-0.1,0.1-0.1c0.1-0.6,0.1-1.1,0.1-1.7c1.1,1,2.1,2,3,3.1       C239.1,46.3,239.1,46.7,239,47z M239.9,37.8L239.9,37.8c-0.6-0.1-1.1-0.4-1.6-0.6c0.1-0.6,0.3-1.2,0.6-1.7       c1.2-1.9,2.6-3.7,4.2-5.3c0,0,0,0,0,0c0,0,0,0,0,0c-2.5,1.6-4.6,3.8-5.9,6.4c-0.6-0.3-1.4-0.7-2.1-1.2c0.1-0.9,0.4-1.7,0.8-2.5       c1.2-1.9,2.6-3.7,4.2-5.3c0,0,0,0,0,0c0,0,0,0,0,0c-2.7,1.7-4.9,4.1-6.2,7.1c-0.6-0.4-1.3-0.8-2-1.2c0.2-1.1,0.5-2.1,0.9-3.1       c1.2-1.9,2.6-3.7,4.2-5.3c0,0,0,0,0,0c-2.9,1.8-5.2,4.4-6.4,7.6c-0.5-0.3-1-0.6-1.4-0.9c0.2-1.2,0.5-2.4,1-3.6       c1.2-1.9,2.6-3.7,4.2-5.3c0,0,0,0,0,0c0,0,0,0,0,0l0,0c-3,1.8-5.3,4.7-6.5,8c-0.6-0.4-1.1-0.8-1.6-1.1c0.2-1.4,0.6-2.7,1.1-4.1       c1.2-1.9,2.6-3.7,4.2-5.3c0,0,0,0,0,0c0,0,0,0,0,0c-3.2,1.9-5.5,4.9-6.5,8.4c-0.6-0.5-1.2-0.9-1.7-1.4c0.2-1.4,0.6-2.7,1.1-4       c1.2-1.9,2.6-3.7,4.2-5.3c0,0,0,0,0,0c0,0,0,0,0,0l0,0c-3.1,1.8-5.4,4.7-6.5,8.1c-0.2-0.2-0.4-0.4-0.6-0.7       c-0.3-0.5-0.4-0.8-0.4-0.9c0.2-0.9,0.1-1.8-0.4-2.6c-0.9-1.1-2.1-1.9-3.4-2.2c0.3-0.5,0.6-1,0.9-1.4l0,0       c0.3-0.4,1.7-0.3,2.1-0.3c0.7,0.2,1.4,0.4,2,0.8c0.1,0,0.1,0,0.2-0.1c0,0,0-0.1,0-0.1c-0.5-0.8-1.3-1.4-2.3-1.5       c-0.3-0.1-0.6-0.1-1-0.1c0.3-0.3,0.6-0.6,0.9-1c0.6-0.1,1.3-0.2,1.9,0c0.7,0.2,1.4,0.5,2.1,0.8c0.1,0,0.1,0,0.2-0.1       c0,0,0-0.1,0-0.1c-0.5-0.9-1.4-1.4-2.4-1.6c-0.2,0-0.5-0.1-0.8-0.1c0.3-0.3,0.5-0.5,0.8-0.8c0.6-0.2,1.2-0.2,1.8-0.1       c0.7,0.2,1.4,0.4,2,0.8c0.1,0,0.1,0,0.2-0.1c0,0,0-0.1,0-0.1c-0.5-0.8-1.3-1.4-2.2-1.5c-0.2,0-0.4-0.1-0.6-0.1l0.7-0.6       c0.6-0.1,1.3-0.1,1.9,0c0.7,0.2,1.3,0.5,1.9,0.8c0.1,0,0.1,0,0.2-0.1c0,0,0-0.1,0-0.1c-0.5-0.8-1.3-1.4-2.2-1.5       c-0.2,0-0.4-0.1-0.6-0.1l0.2-0.1c0,0,0.1-0.1,0.1-0.1l0.3-0.3c0.5-0.2,1.1-0.2,1.7-0.2c0.7,0.1,1.3,0.3,1.9,0.6       c0.1,0,0.1,0,0.1-0.1c0,0,0,0,0,0c-0.4-0.8-1.2-1.3-2.1-1.3l-0.2,0l0.1-0.1c0.1,0,0.1-0.1,0.2-0.1l0.3-0.2       c0.5-0.2,1.1-0.2,1.7-0.2c0.7,0.1,1.3,0.3,1.9,0.7c0.1,0,0.1,0,0.2-0.1c0,0,0-0.1,0-0.1c-0.3-0.6-0.9-1.1-1.6-1.2       c1.7-0.1,3.3,0.2,4.8,1l0.8,0.4l0.2,0.1c-1,0.9-1.9,2-2.4,3.2c0,0.1,0,0.2,0.1,0.2c0.1,0,0.1,0,0.2,0c1-1.1,2.1-2,3.3-2.7       c0.6,0.3,1.3,0.7,2,1.1c-1.1,0.9-1.9,2-2.5,3.2c0,0.1,0,0.2,0.1,0.2c0.1,0,0.1,0,0.2,0c1-1.1,2.1-2,3.3-2.7       c0.6,0.4,1.2,0.7,1.9,1.2c-1,0.9-1.8,1.9-2.4,3.2c0,0.1,0,0.2,0.1,0.2c0.1,0,0.1,0,0.2,0c0.9-1,2-1.9,3.2-2.6       c0.6,0.4,1.2,0.8,1.9,1.3c-1.1,0.9-2,2-2.6,3.4c0,0.1,0,0.2,0.1,0.2c0.1,0,0.1,0,0.2,0c1-1.1,2.1-2,3.4-2.7h0       c0.7,0.5,1.5,1.1,2.3,1.7c-1.2,0.9-2.1,2.1-2.7,3.5c0,0.1,0,0.2,0.1,0.2c0.1,0,0.1,0,0.2,0c1-1.1,2.1-2,3.4-2.7       c0,0,0.1,0,0.1-0.1c0.8,0.7,1.7,1.4,2.6,2.2c-1.2,0.9-2.1,2.1-2.7,3.5c0,0.1,0,0.2,0.1,0.2c0.1,0,0.1,0,0.2,0       c1-1.1,2.1-2,3.4-2.7l0.1,0c1,0.9,2.2,1.9,3.3,3l0.1,0.1c0.4,0.6,0.8,1.1,1.1,1.5c-0.3,0.6-0.6,1.2-0.9,1.8       c-0.6-0.8-1.3-1.4-2.2-1.8c-0.1,0-0.3,0.1-0.2,0.2c0.6,0.6,1.2,1.3,1.7,2c0.1,0.2,0.2,0.3,0.2,0.5c-0.2,0.4-0.5,0.8-0.7,1.2       l-0.2-0.2c-0.6-0.8-1.4-1.5-2.3-1.9c-0.1,0-0.3,0.1-0.2,0.2c0.6,0.6,1.2,1.3,1.7,2c0.1,0.3,0.3,0.6,0.3,0.9       c-0.2,0.4-0.5,0.7-0.7,1c-0.1-0.2-0.2-0.3-0.3-0.5c-0.6-0.8-1.4-1.5-2.3-1.9c-0.1,0-0.3,0.1-0.2,0.2c0.6,0.6,1.2,1.3,1.7,2       c0.2,0.3,0.3,0.7,0.4,1.1c-0.2,0.3-0.5,0.6-0.7,0.9c-0.1-0.2-0.3-0.4-0.4-0.6c-0.6-0.8-1.4-1.5-2.3-1.9c-0.1,0-0.3,0.1-0.2,0.2       c0.6,0.6,1.2,1.3,1.7,2c0.2,0.3,0.3,0.7,0.5,1.1c-0.2,0.3-0.5,0.6-0.7,0.9c-0.1-0.2-0.3-0.4-0.4-0.6c-0.6-0.8-1.4-1.5-2.3-1.9       c-0.1,0-0.3,0.1-0.2,0.2c0.6,0.6,1.2,1.3,1.7,2c0.2,0.3,0.3,0.7,0.4,1.1c-0.3,0.3-0.5,0.6-0.8,0.8c-0.1-0.2-0.2-0.3-0.3-0.5       c-0.6-0.8-1.4-1.5-2.3-1.9c-0.1,0-0.3,0.1-0.2,0.2c0.6,0.6,1.2,1.3,1.7,2c0.1,0.3,0.3,0.6,0.3,0.9c-0.4,0.4-0.7,0.7-1,0.9       C242.8,36.1,241.1,36.7,239.9,37.8L239.9,37.8z"></path>
					<path id="Tracciato_23" class="st0" d="M216.4,20.5L216.4,20.5L216.4,20.5L216.4,20.5z"></path>
					<path id="Tracciato_24" class="st0" d="M228,16.5c-0.1,0-0.2,0.1-0.1,0.2c3,2.2,6.3,4,9.3,6.2c3,2.2,5.7,4.9,8.6,7.2       c0.1,0.1,0.4-0.1,0.2-0.2C241.1,24,235,19.4,228,16.5z"></path>
					<path id="Tracciato_25" class="st0" d="M229.9,14c3,2.2,6.3,4,9.3,6.2c3,2.2,5.7,4.9,8.6,7.2c0.1,0.1,0.4-0.1,0.2-0.2       c-4.8-5.8-11-10.4-18-13.3C229.9,13.8,229.9,13.9,229.9,14z"></path>
					<path id="Tracciato_26" class="st0" d="M267,54.4l0.5-0.6l-5.9-4.8c-0.1-0.1-0.2-0.2-0.3-0.3c-0.1-0.1-0.3-0.3-0.4-0.4       c-0.2-0.3-0.3-0.5-0.5-0.8c-0.2-0.3-0.3-0.3,0.1-0.6c0.1,0,0.1-0.1,0.2-0.1c0.5,0.5,1,1,1.6,1.4c1,0.9,3.9,3.2,5.9,4.7l0,0       l0.1-0.2c-2.8-2.2-5.4-4.8-7.6-7.7c-0.1-0.1-0.1-0.2-0.2-0.3c0-0.9-0.1-1.8-0.5-2.7c-0.9-1.6-1.6-2.8-2.8-2.8       c-0.8,0-1.5,0.4-2.3,1.5l-0.1,0.1c-0.5,0.7-0.5,1.7,0.2,2.3c0.5,0.6,0.9,1.3,1.2,2c1,2.2,1.6,2.6,2,2.7l0.1,0.1       c0,0,0.1,0.1,0.2,0.1c0.2,0.2,0.4,0.3,0.6,0.4l7.6,6.2C266.8,54.5,266.9,54.5,267,54.4z M257.3,41.9c0.1,0.1,0.2,0.3,0.3,0.4       C257.3,41.9,257,41.4,257.3,41.9z"></path>
					<path id="Tracciato_27" class="st0" d="M294.5,63.6c-0.1,0-0.1-0.1-0.2-0.1c-0.1-0.1-0.3-0.1-0.4,0c-0.2,0.1-0.4,0.3-0.6,0.5       l-0.1,0c-0.3,0.2-0.6,0.5-0.9,0.7c-0.6,0.4-1.2,0.7-1.9,0.9c0,0,0,0,0,0c0,0,0,0,0,0c-0.2,0-0.5,0.1-0.7,0.1       c-1.1,0-2.1-0.1-3.2-0.2c-0.5-0.1-1-0.3-1.4-0.4c-0.9-0.7-2-1.2-2.9-1.9c-1.8-1.3-7.3-5.7-9-7c-0.1-0.1-0.2,0-0.1,0.1       c2.7,2.7,5.6,5.2,8.6,7.6c0.4,0.3,0.8,0.6,1.2,0.9c0,0,0,0.1,0,0.1c-0.6-0.2-1.1-0.5-1.7-0.8c-0.8-0.4-1.6-0.9-2.3-1.3       l-6.7-5.5h0c-0.2,0.3-0.4,0.5-0.6,0.7c0,0-0.1,0.1-0.1,0.1l10.1,8.3c0.4,0.4,0.7,0.7,1,1.1c0.7,0.9,1.2,1.9,1.6,2.9       c0.1,0.3,0.2,0.6,0.3,1c0,0,0,0,0,0c0,0.2,0,0.4,0,0.7c0,0,0.1,0,0.1,0c0.2-0.9,0.5-1.9,0.9-2.8l0.1-0.2c1.3-1.7,3.1-3,5.2-3.7       c0.3,0,0.6,0,0.9-0.1c0.2,0,0.4,0,0.6,0l0.4,0c1.4,0.3,2.7,0.9,3.9,1.7l1.2-1.4C296.6,65.2,295.6,64.4,294.5,63.6z"></path>
					<path id="Tracciato_28" class="st0" d="M297.7,72.5c0.2,3-2.1,5.6-5.1,5.8c-3,0.2-5.6-2.1-5.8-5.1c0-0.5,0-0.9,0.1-1.4       c0.6-2.3,2.7-4,5.1-4.2c0.1,0,0.1-0.1,0.1-0.1c0-0.1-0.1-0.1-0.1-0.1c-2.8-0.3-5.4,1.6-6,4.3c-0.7,2.7,0.6,5.6,3,7       c2.5,1.6,5.8,1.4,8-0.6c1.4-1.3,2.7-4,1.3-5.7c-0.1-0.2-0.3-0.2-0.4-0.1C297.7,72.2,297.7,72.4,297.7,72.5z"></path>
					<path id="Tracciato_29" class="st0" d="M302.3,70.1c-1.1-0.9-2.1-1.8-3.2-2.7l-1.2,1.4c0.9,0.9,1.5,2,1.9,3.2       c0.1,0.3,0.2,0.7,0.2,1.1c0,0.1,0.2,0.1,0.2,0v0c0.8-0.7,1.5-1.5,2.2-2.3C302.6,70.6,302.5,70.3,302.3,70.1       C302.4,70.1,302.4,70.1,302.3,70.1z M300.7,71.9L300.7,71.9L300.7,71.9L300.7,71.9z"></path>
					<path id="Tracciato_30" class="st0" d="M293.2,81.1c-0.3,0-0.7,0.1-1,0c-1.2-0.2-2.3-0.6-3.3-1.2l-1.1,1.4       c1.1,0.8,2.1,1.7,3.1,2.5c0.2,0.1,0.4,0.1,0.6,0c0.6-0.8,1.2-1.6,1.8-2.4l0,0c0.1,0,0.1-0.1,0-0.2       C293.3,81.1,293.3,81.1,293.2,81.1z M292.2,81.9L292.2,81.9L292.2,81.9L292.2,81.9z"></path>
					<path id="Tracciato_31" class="st0" d="M284.5,74.1c0-0.3,0-0.7-0.1-1c0,0,0,0,0,0c0,0,0,0,0,0c-0.1,0.7-0.2,1.4-0.4,2       c-0.1,0.3-0.3,0.6-0.5,1l0,0.1c-0.1,0.2-0.3,0.5-0.4,0.7c-0.1,0.1-0.1,0.3,0,0.4c0,0.1,0.1,0.1,0.1,0.2c0.9,0.9,1.9,1.7,3,2.6       l1.1-1.4c-1-1-1.9-2.2-2.5-3.5C284.7,74.8,284.6,74.5,284.5,74.1z"></path>
				</g>
			</g>
			<g id="Raggruppa_9">
				<path id="Tracciato_32" class="st0" d="M317.5,40.4c-0.7-2.2-1.6-4.3-2.6-6.4c-0.2-0.5-0.9-0.7-1.4-0.5c-0.1,0-0.2,0.1-0.2,0.2      l-1,1c-0.3,0.3-0.4,0.8-0.2,1.2c0.9,1.8,1.6,3.7,2.2,5.6c8,24.4-5.3,50.7-29.7,58.7S234,94.9,226,70.4c-2.7-8.3-3-17.2-0.9-25.7      c0.1-0.4-0.1-0.9-0.5-1.1l-1.2-0.7c-0.5-0.3-1.1-0.1-1.4,0.3c0,0.1-0.1,0.2-0.1,0.3c-6.9,26.7,9.2,54,35.8,60.9      c5.7,1.5,11.6,1.9,17.5,1.3l0,0c27.4-2.8,47.3-27.3,44.6-54.8C319.4,47.3,318.6,43.8,317.5,40.4z"></path>
				<path id="Tracciato_33" class="st0" d="M265.7,11.6L265.7,11.6c-4.9,0.5-9.8,1.8-14.3,3.9c-0.3,0.1-0.4,0.5-0.3,0.8      c0,0.1,0.1,0.1,0.1,0.2l0.7,0.6c0.2,0.2,0.4,0.2,0.6,0.1c8.5-3.9,17.9-4.8,27-2.7c0.2,0.1,0.5,0,0.6-0.2l0.6-0.7      c0.2-0.3,0.2-0.6-0.1-0.8c-0.1-0.1-0.1-0.1-0.2-0.1C275.6,11.4,270.6,11.1,265.7,11.6L265.7,11.6z"></path>
				<path id="Tracciato_34" class="st0" d="M265.1,100.3c3.2,0.4,6.4,0.4,9.6,0.1l0,0c24.5-2.5,42.3-24.4,39.8-48.9      c-0.3-3.2-1-6.3-2-9.3c-0.6-1.7-1.2-3.3-1.9-4.9c-0.1-0.2-0.4-0.3-0.6-0.2c0,0-0.1,0-0.1,0.1l-0.8,0.8c-0.2,0.1-0.2,0.4-0.1,0.6      c9.7,21.4,0.3,46.7-21.1,56.4c-21.4,9.7-46.6,0.3-56.3-21.1c-3.2-7-4.4-14.8-3.5-22.5c0.2-1.6,0.4-3.1,0.8-4.7      c0-0.2,0-0.4-0.2-0.5l-1-0.6c-0.2-0.1-0.5-0.1-0.7,0.2c0,0,0,0.1-0.1,0.1c-0.4,1.7-0.7,3.5-0.9,5.2      C223.2,75.4,240.7,97.5,265.1,100.3z"></path>
				<path id="Tracciato_35" class="st0" d="M248.5,14.1c0.3,0.3,0.7,0.3,1.1,0.1c10-5,21.6-6.2,32.4-3.3c0.4,0.1,0.8,0,1.1-0.4      l0.9-1.2c0.3-0.4,0.3-1.1-0.2-1.4c-0.1-0.1-0.2-0.1-0.4-0.2c-5.9-1.7-12.1-2.2-18.3-1.6l0,0c-6.1,0.6-12.1,2.4-17.6,5.2      c-0.5,0.3-0.7,0.9-0.4,1.4c0.1,0.1,0.1,0.2,0.2,0.3L248.5,14.1z"></path>
			</g>
		</g>
	</g>
</g>
</svg>