<svg version="1.1" xmlns="http://www.w3.org/2000/svg" fill="#666" xmlns:xlink="http://www.w3.org/1999/xlink" x="0px" y="0px"
	 viewBox="0 0 20 20" style="enable-background:new 0 0 20 20;" xml:space="preserve">
<path d="M19.4,1.8c-0.8,0.5-1.7,0.8-2.6,1c-0.7-0.8-1.8-1.4-3-1.4c-2.3,0-4.1,1.9-4.1,4.3c0,0.3,0,0.7,0.1,1
	C6.4,6.6,3.4,4.9,1.4,2.3C1,2.9,0.8,3.7,0.8,4.4c0,1.5,0.7,2.8,1.8,3.6C2,8,1.4,7.8,0.8,7.5v0.1c0,2.1,1.4,3.8,3.3,4.2
	c-0.3,0.1-0.7,0.1-1.1,0.1c-0.3,0-0.5,0-0.8-0.1c0.5,1.7,2,2.9,3.8,3c-1.4,1.2-3.2,1.8-5.1,1.8c-0.3,0-0.7,0-1-0.1
	c1.8,1.2,4,1.9,6.3,1.9C13.8,18.5,18,12,18,6.3c0-0.2,0-0.4,0-0.6c0.8-0.6,1.5-1.4,2-2.2c-0.7,0.3-1.5,0.6-2.4,0.7
	C18.5,3.7,19.1,2.8,19.4,1.8"/>
</svg>
