<svg version="1.1" xmlns="http://www.w3.org/2000/svg" fill="#666" xmlns:xlink="http://www.w3.org/1999/xlink" x="0px" y="0px"
	 viewBox="0 0 23 20" style="enable-background:new 0 0 23 20;" xml:space="preserve">
<path d="M9.1,12.9l0-6.4l6.2,3.2L9.1,12.9z M22.8,5.5c0,0-0.2-1.6-0.9-2.3c-0.9-0.9-1.9-0.9-2.3-1c-3.2-0.2-8-0.2-8-0.2
	h0c0,0-4.8,0-8,0.2C3,2.3,2,2.3,1.1,3.2C0.5,3.9,0.2,5.5,0.2,5.5S0,7.3,0,9.1v1.7c0,1.8,0.2,3.7,0.2,3.7s0.2,1.6,0.9,2.3
	c0.9,0.9,2,0.9,2.5,1c1.8,0.2,7.8,0.2,7.8,0.2s4.8,0,8-0.2c0.4-0.1,1.4-0.1,2.3-1c0.7-0.7,0.9-2.3,0.9-2.3s0.2-1.8,0.2-3.7V9.1
	C23,7.3,22.8,5.5,22.8,5.5L22.8,5.5z"/>
</svg>
